<svg width="30" height="28" viewBox="0 0 30 28" fill="none" xmlns="http://www.w3.org/2000/svg">
<path d="M0.641628 26.1531C0.849561 27.0241 1.62436 27.6326 2.52532 27.6326H27.4745C28.3754 27.6326 29.1503 27.0241 29.3579 26.154L29.987 23.5446C30.0568 23.2552 29.8373 22.975 29.5383 22.975H29.087V7.83168C29.087 6.86706 28.3023 6.08256 27.3379 6.08256H27.1026V0.369024L2.90001 0.368808C2.89957 0.953138 2.90173 -1.74764 2.89526 6.08234H2.65993C1.6979 6.08234 0.915115 6.86706 0.915115 7.83147V22.9748H0.461716C0.162538 22.9748 -0.0568259 23.255 0.0130596 23.5444L0.641628 26.1531ZM27.1027 7.00582H27.338C27.7934 7.00582 28.1641 7.37661 28.1641 7.83196V22.9747H27.1027L27.1027 7.00582ZM3.82281 1.29229H26.1794V2.2869L12.2774 2.28819V3.21118L26.1794 3.20989V4.2045H3.82281V1.29229ZM3.81806 5.12765H26.1796V22.9751H3.81806V5.12765ZM17.4594 23.9027L17.4514 24.6018L12.5352 24.5884V23.9027L17.4594 23.9027ZM1.83845 7.83174C1.83845 7.37639 2.20709 7.0056 2.66006 7.0056H2.89539V22.975H1.83844L1.83845 7.83174ZM11.6123 23.9027V24.5885C11.6123 25.1046 12.0324 25.5248 12.5486 25.5248H17.4515C17.9676 25.5248 18.3878 25.1046 18.3878 24.5885V23.9027C18.6976 23.9025 28.6409 23.8984 28.9524 23.8982L28.4604 25.9387C28.3521 26.3926 27.9466 26.7096 27.4744 26.7096L2.52581 26.7099C2.05364 26.7099 1.64832 26.3928 1.53965 25.9381L1.04786 23.8984C2.12806 23.8986 -2.86537 23.8966 11.6124 23.9027L11.6123 23.9027Z" fill="#515151"/>
<path d="M9.13965 2.2876H10.21V3.21059H9.13965V2.2876Z" fill="#515151"/>
<path d="M7.00488 2.2876H8.0752V3.21059H7.00488V2.2876Z" fill="#515151"/>
<path d="M4.87012 2.2876H5.94043V3.21059H4.87012V2.2876Z" fill="#515151"/>
<path d="M9.80974 15.7326H12.638L13.2157 17.0747H14.5237L11.7463 11.0271H10.676L7.89844 17.0747H9.23209L9.80974 15.7326ZM11.2282 12.4542L12.2049 14.7218H10.2513L11.2282 12.4542Z" fill="#515151"/>
<path d="M16.3661 14.6284H17.7845C18.9858 14.6284 19.8993 14.0305 19.8993 12.8277C19.8993 11.6222 19.0071 11.0271 17.7845 11.0271H15.041V17.0747H16.3661V14.6284ZM16.3661 12.0464H17.6145C18.3052 12.0464 18.6508 12.3096 18.6508 12.8364C18.6508 13.3575 18.3052 13.6176 17.6145 13.6176H16.3661V12.0464Z" fill="#515151"/>
<path d="M20.7734 11.0269H22.0985V17.0745H20.7734V11.0269Z" fill="#515151"/>
</svg>
