<svg width="33" height="34" viewBox="0 0 33 34" fill="none" xmlns="http://www.w3.org/2000/svg">
<path d="M16.5145 13.2673C18.5154 13.2673 20.143 11.6394 20.143 9.63872C20.143 7.63805 18.5151 6.01065 16.5145 6.01065C14.5135 6.01065 12.8859 7.63805 12.8859 9.63872C12.8859 11.6394 14.5138 13.2673 16.5145 13.2673ZM16.5145 6.94671C17.9993 6.94671 19.2073 8.15449 19.2073 9.63904C19.2073 11.1238 17.9995 12.3319 16.5145 12.3319C15.0297 12.3319 13.8216 11.1241 13.8216 9.63904C13.8216 8.15449 15.0299 6.94671 16.5145 6.94671ZM16.5145 14.1531C12.4855 14.1531 9.2079 17.4303 9.2079 21.459C9.2079 22.2182 9.63152 23.2789 11.6511 24.0226C12.9419 24.4976 14.6688 24.7594 16.5141 24.7594C20.1507 24.7594 23.8207 23.7389 23.8207 21.459C23.8209 17.4302 20.5434 14.1531 16.5148 14.1531H16.5145ZM16.5145 23.8232C12.8827 23.8232 10.1442 22.8067 10.1442 21.4585C10.1442 17.9459 13.0023 15.0883 16.515 15.0883C20.0276 15.0883 22.8852 17.9459 22.8852 21.4585C22.8847 22.8067 20.1463 23.8232 16.5145 23.8232ZM20.0144 18.2095L17.7726 18.0723L16.9498 15.9824C16.8795 15.8034 16.7067 15.686 16.5144 15.686C16.3222 15.686 16.1497 15.8037 16.0791 15.9824L15.2563 18.0723L13.0145 18.2095C12.8228 18.2214 12.6575 18.3491 12.5979 18.5319C12.5383 18.7146 12.5971 18.9153 12.7452 19.0375L14.4783 20.4657L13.9158 22.6401C13.8677 22.8264 13.9383 23.0228 14.0939 23.1358C14.2495 23.2485 14.4584 23.255 14.6205 23.1517L16.5147 21.9447L18.4089 23.1517C18.4859 23.2006 18.5732 23.225 18.6602 23.225C18.7569 23.225 18.8534 23.1954 18.9355 23.1358C19.091 23.0231 19.1614 22.8261 19.1135 22.6401L18.551 20.4657L20.2841 19.0375C20.4327 18.9153 20.4908 18.7146 20.4314 18.5319C20.3719 18.3491 20.2066 18.2209 20.0144 18.2095ZM17.725 19.9334C17.5846 20.0491 17.524 20.2358 17.5696 20.4114L17.9092 21.7241L16.7658 20.9955C16.689 20.9467 16.6015 20.9222 16.5145 20.9222C16.427 20.9222 16.3399 20.9469 16.2631 20.9955L15.1197 21.7241L15.4593 20.4114C15.5047 20.2353 15.4441 20.0486 15.304 19.9329L14.2577 19.0704L15.6111 18.9876C15.7929 18.9764 15.9514 18.8615 16.018 18.6919L16.5152 17.43L17.0119 18.6914C17.0784 18.8607 17.237 18.9759 17.4188 18.9871L18.7721 19.0699L17.725 19.9334ZM33 11.6834C33 13.7235 32.2126 15.6343 30.7824 17.0638C30.6912 17.1551 30.5713 17.2009 30.4513 17.2009C30.3314 17.2009 30.212 17.1551 30.1202 17.0638C29.9374 16.881 29.9374 16.5846 30.1202 16.4021C31.3736 15.1492 32.0635 13.4731 32.0635 11.6834C32.0635 9.89371 31.3736 8.21768 30.1202 6.96477C29.9374 6.78201 29.9374 6.48556 30.1202 6.30305C30.303 6.12029 30.5994 6.12029 30.7819 6.30305C32.2123 7.73251 33 9.64363 33 11.6834ZM29.1897 15.4711C29.0984 15.5623 28.9785 15.6082 28.8586 15.6082C28.7387 15.6082 28.6192 15.5623 28.5275 15.4711C28.3447 15.2883 28.3447 14.9918 28.5275 14.8093C30.2514 13.0857 30.2514 10.281 28.5275 8.55732C28.3447 8.37456 28.3447 8.0781 28.5275 7.8956C28.7102 7.71284 29.0067 7.71284 29.1892 7.8956C31.2781 9.98454 31.2781 13.3827 29.1897 15.4709L29.1897 15.4711ZM27.856 13.5848C27.7637 13.7035 27.6256 13.7659 27.486 13.7659C27.3857 13.7659 27.285 13.7339 27.1992 13.6676C26.9953 13.509 26.9579 13.2153 27.1162 13.0111C27.7839 12.1509 27.7056 10.9207 26.9349 10.1506C26.7522 9.96779 26.7522 9.67133 26.9349 9.48883C27.1177 9.30607 27.4142 9.30607 27.5967 9.48883C28.7002 10.5916 28.8114 12.3529 27.856 13.5848ZM6.06526 9.48827C6.24803 9.67103 6.24803 9.96749 6.06526 10.15C5.29459 10.9207 5.21678 12.1507 5.884 13.0106C6.04233 13.2145 6.00542 13.5087 5.80097 13.6671C5.7157 13.7334 5.61472 13.7653 5.51424 13.7653C5.37461 13.7653 5.23648 13.7032 5.14422 13.5843C4.18851 12.3523 4.29976 10.5915 5.40303 9.48771C5.58629 9.30544 5.8825 9.30551 6.06526 9.48827ZM2.87979 16.4023C3.06255 16.585 3.06255 16.8815 2.87979 17.064C2.78853 17.1553 2.66861 17.2011 2.54868 17.2011C2.42875 17.2011 2.30932 17.1552 2.21756 17.064C0.787911 15.6343 0.000255318 13.7234 0 11.6836C0 9.64357 0.7874 7.73271 2.21731 6.30299C2.40007 6.12023 2.69652 6.12048 2.87903 6.30299C3.06179 6.48575 3.06179 6.78171 2.87903 6.96471C1.62663 8.21787 0.936697 9.89365 0.936697 11.6836C0.936697 13.4733 1.62688 15.1494 2.87979 16.4023ZM4.47278 14.8098C4.65555 14.9926 4.65555 15.289 4.47278 15.4715C4.38153 15.5628 4.2616 15.6086 4.14167 15.6086C4.02174 15.6086 3.90231 15.5628 3.81055 15.4715C1.72212 13.3826 1.72161 9.98442 3.81055 7.89624C3.99331 7.71347 4.28977 7.71347 4.47227 7.89624C4.65503 8.079 4.65503 8.37546 4.47227 8.55796C2.74888 10.2816 2.74888 13.0863 4.47277 14.81L4.47278 14.8098ZM23.4308 0.489025H9.5702C8.02885 0.489025 6.77441 1.74315 6.77441 3.28482V30.7155C6.77441 32.2569 8.02878 33.5113 9.5702 33.5113H23.4308C24.9721 33.5113 26.2265 32.2569 26.2265 30.7155V3.28482C26.2265 1.74321 24.9724 0.48877 23.4305 0.48877L23.4308 0.489025ZM25.2911 30.7154C25.2911 31.7412 24.4566 32.5752 23.4313 32.5752L9.57007 32.5755C8.54433 32.5755 7.71027 31.741 7.71027 30.7157L7.71003 3.285C7.71003 2.25952 8.54453 1.4252 9.56982 1.4252H23.4304C24.4561 1.4252 25.2902 2.25971 25.2902 3.285L25.2904 30.7157L25.2911 30.7154ZM18.2347 29.8133C18.2347 30.0717 18.025 30.2813 17.7667 30.2813H15.234C14.9757 30.2813 14.766 30.0716 14.766 29.8133C14.766 29.555 14.9757 29.3453 15.234 29.3453H17.7667C18.025 29.3456 18.2347 29.555 18.2347 29.8133Z" fill="#515151"/>
</svg>
