<svg width="31" height="28" viewBox="0 0 31 28" fill="none" xmlns="http://www.w3.org/2000/svg">
<path d="M7.06102 17.5641C6.70881 18.178 7.00497 19.0163 7.72047 19.4315L7.78159 19.4667C8.02886 19.6104 8.11605 19.839 8.06507 19.9278C8.04431 19.9631 7.99887 19.9818 7.96405 19.9908C7.86809 20.0176 7.70525 20.0086 7.53457 19.9096C7.34796 19.8012 7.25155 19.6423 7.23887 19.5327C7.20611 19.2492 6.95239 19.0423 6.66661 19.0785C6.38313 19.1108 6.17969 19.3671 6.21244 19.6508C6.24543 19.9396 6.38475 20.2113 6.58865 20.4424L6.28464 20.9718C6.14232 21.219 6.22813 21.5348 6.4754 21.6771C6.55659 21.7235 6.64493 21.7458 6.73212 21.7458C6.91134 21.7458 7.08526 21.6531 7.18075 21.4866L7.46838 20.9858C7.59847 21.0183 7.72994 21.037 7.8598 21.037C7.98689 21.037 8.11214 21.0213 8.23162 20.989C8.54855 20.9042 8.80734 20.7095 8.96075 20.4422C9.31942 19.818 9.02949 18.9971 8.3013 18.5738L8.23971 18.5381C7.99291 18.3953 7.90618 18.1667 7.95669 18.0784C7.97745 18.0426 8.02335 18.0239 8.05819 18.0147C8.15345 17.9879 8.31698 17.9969 8.48813 18.0964C8.67426 18.2043 8.77022 18.3632 8.78337 18.4732C8.81658 18.7563 9.06292 18.9618 9.35655 18.9263C9.64002 18.893 9.843 18.6366 9.80956 18.3531C9.77611 18.0648 9.63679 17.7935 9.43313 17.5628L9.7369 17.0337C9.87922 16.786 9.79341 16.4702 9.54614 16.3284C9.29796 16.1861 8.98265 16.2714 8.84081 16.5191L8.55065 17.0247C8.29439 16.9611 8.03259 16.9521 7.79088 17.016C7.47441 17.1015 7.21493 17.2958 7.0611 17.564L7.06102 17.5641Z" fill="#515151"/>
<path d="M12.9692 16.5337L7.65808 13.4496C7.53953 13.3801 7.39721 13.3617 7.26505 13.3974C7.13242 13.433 7.01871 13.5202 6.95066 13.6394L2.86365 20.7641C2.7218 21.0109 2.80668 21.3258 3.05233 21.4686L8.36388 24.5529C8.44299 24.5988 8.53295 24.6226 8.62314 24.6226C8.66811 24.6226 8.71286 24.6166 8.75691 24.6048C8.88954 24.569 9.00326 24.4821 9.0713 24.3626L13.1578 17.2379C13.1934 17.1763 13.2146 17.1106 13.2227 17.0441C13.2471 16.8451 13.1535 16.6412 12.9692 16.5341V16.5337ZM8.43356 23.3974L4.01559 20.8323L7.58847 14.6039L12.006 17.1692L8.43356 23.3974Z" fill="#515151"/>
<path d="M30.4835 0.566528H27.3835C27.098 0.566528 26.8668 0.797879 26.8668 1.0832H16.8127C14.843 1.0832 13.041 2.0817 11.9927 3.75489L8.52847 9.29501L7.02664 9.69866C6.89401 9.73441 6.78146 9.82137 6.71341 9.94039L0.0687317 21.5185C-0.0731195 21.7653 0.0117596 22.0802 0.257408 22.223L9.11284 27.3638C9.19196 27.4097 9.28169 27.4335 9.3721 27.4335C9.41708 27.4335 9.46182 27.4275 9.50588 27.4157C9.63851 27.3804 9.75222 27.293 9.82026 27.174L16.4649 15.5953C16.533 15.4767 16.5512 15.336 16.5159 15.2043L16.1782 13.944L22.8625 10.3833H26.8666C26.8666 10.6686 27.0978 10.9 27.3833 10.9H30.4833C30.7689 10.9 31 10.6686 31 10.3833V1.08324C31 0.797921 30.7689 0.566571 30.4833 0.566571L30.4835 0.566528ZM9.18254 26.2093L1.22051 21.587L7.50263 10.6401L9.80184 10.0217L16.2463 7.90679C16.3674 7.86158 16.4991 7.86366 16.6193 7.91117L17.9352 8.43776L15.7504 9.94024L14.5875 10.6391L13.7811 11.1918C13.7285 11.2229 13.6838 11.2626 13.6356 11.2984C13.5957 11.3281 13.5521 11.3539 13.5152 11.3867C13.4672 11.4291 13.4273 11.478 13.3848 11.5251C13.3528 11.5604 13.3168 11.5924 13.288 11.63C13.2478 11.6822 13.2165 11.7398 13.1826 11.7959C13.1597 11.8337 13.1323 11.8688 13.1124 11.9082C13.0811 11.9696 13.0594 12.0351 13.0354 12.0997C13.0213 12.1377 13.0024 12.1739 12.9907 12.2129C12.9699 12.2828 12.9595 12.355 12.9471 12.427C12.9408 12.4634 12.9295 12.4985 12.9256 12.5351C12.9173 12.6129 12.9198 12.6915 12.9215 12.7702C12.9221 12.8025 12.9175 12.8345 12.9201 12.8668C12.9268 12.9538 12.9448 13.0405 12.9641 13.1268C12.9694 13.1508 12.9701 13.1752 12.9766 13.1992C13.0061 13.3092 13.0465 13.4179 13.0979 13.5235C13.3083 13.9562 13.6732 14.2773 14.1248 14.4276C14.2155 14.4579 14.3075 14.48 14.3998 14.495C14.4249 14.4991 14.45 14.4982 14.4752 14.5012C14.5402 14.5088 14.6055 14.5171 14.6705 14.5171C14.6722 14.5171 14.6738 14.5167 14.6754 14.5167C14.7965 14.5164 14.9166 14.4991 15.0359 14.4731C15.0663 14.4664 15.0963 14.4581 15.1266 14.4496C15.163 14.4394 15.1999 14.4339 15.2359 14.4212L15.4619 15.2659L9.18254 26.2093ZM22.7335 9.34993C22.6486 9.34993 22.5656 9.37092 22.4908 9.41036L15.3277 13.2243L14.9907 13.406C14.8233 13.4921 14.6314 13.5077 14.4524 13.4473C14.2662 13.3855 14.1154 13.2517 14.0275 13.0709C13.8504 12.7083 13.9774 12.2714 14.3509 12.0544L15.1462 11.5079L16.3096 10.8088L18.5212 9.2888C18.836 9.07267 19.0051 8.70247 18.9626 8.32307C18.9202 7.94367 18.6741 7.61981 18.3193 7.47815L17.0034 6.95133C16.9112 6.91443 16.8164 6.88721 16.7209 6.86876C16.6953 6.86368 16.6694 6.86414 16.6436 6.86045C16.5737 6.85031 16.5038 6.84085 16.4337 6.84039C16.43 6.84039 16.4263 6.83923 16.4226 6.83923C16.3719 6.83923 16.3221 6.84731 16.2718 6.85238C16.2358 6.85607 16.1991 6.85561 16.1636 6.86184C16.075 6.87729 15.9885 6.90013 15.9053 6.93127L10.0217 8.86255L12.8689 4.30227C13.7267 2.93377 15.2011 2.11655 16.8127 2.11655H26.8668V9.34994L22.7335 9.34993ZM29.9669 9.8666H27.9002V1.59987H29.9669V9.8666Z" fill="#515151"/>
</svg>
