<svg width="30" height="32" viewBox="0 0 30 32" fill="none" xmlns="http://www.w3.org/2000/svg">
<path d="M29.5425 0.972291H0.457689C0.336278 0.972032 0.219786 1.02018 0.133837 1.10613C0.0478893 1.19208 -0.000257426 1.30857 1.03525e-06 1.43024V28.5375C0.00543746 28.7858 0.209434 28.9835 0.457689 28.9815H17.1688C17.2897 28.9833 17.4062 28.9364 17.4922 28.8518C17.5784 28.7671 17.6268 28.6514 17.6268 28.5305C17.6268 28.4096 17.5784 28.2939 17.4922 28.2092C17.4062 28.1243 17.2897 28.0777 17.1688 28.0795H0.904362V6.42714H29.0846V28.0802H28.1829L28.1827 28.0799C28.062 28.0781 27.9455 28.1247 27.8593 28.2096C27.7734 28.2943 27.7247 28.41 27.7247 28.5309C27.7247 28.6518 27.7734 28.7675 27.8593 28.8522C27.9455 28.9368 28.062 28.9837 28.1827 28.9819H29.5423C29.7911 28.985 29.9956 28.7864 30 28.5379V1.43064C30.0008 1.30897 29.9529 1.19196 29.8667 1.10601C29.7807 1.02007 29.664 0.971919 29.5423 0.972695L29.5425 0.972291ZM0.905025 5.52511V1.88791H29.0852V5.52511H0.905025ZM27.4828 3.38267C27.5682 3.46939 27.6166 3.58614 27.6176 3.70781C27.6171 3.82922 27.5684 3.9452 27.4828 4.03063C27.395 4.11295 27.2803 4.1611 27.1599 4.16576C27.039 4.16369 26.9236 4.11528 26.8374 4.03063C26.7494 3.94649 26.7004 3.82948 26.7022 3.70781C26.6984 3.5851 26.7475 3.46654 26.8374 3.38267C27.0227 3.22268 27.2974 3.22268 27.4828 3.38267ZM25.1138 3.70782C25.1138 3.89317 25.0022 4.05989 24.8314 4.13082C24.6603 4.20175 24.4633 4.16266 24.3325 4.03167C24.2015 3.90067 24.1624 3.70393 24.2331 3.53282C24.304 3.3617 24.471 3.25013 24.6561 3.25013C24.7778 3.24935 24.8945 3.2975 24.9807 3.38345C25.0667 3.4694 25.1146 3.58641 25.1138 3.70782ZM22.4749 3.38267C22.5647 3.46654 22.6139 3.58511 22.61 3.70781C22.6144 3.83 22.5649 3.94805 22.4749 4.03063C22.3886 4.11528 22.2732 4.16369 22.1523 4.16576C22.0353 4.16033 21.9245 4.11218 21.8406 4.03063C21.7474 3.94934 21.6941 3.83155 21.6943 3.70781C21.6946 3.58355 21.7479 3.46524 21.8406 3.38267C22.019 3.21569 22.2962 3.21569 22.4749 3.38267ZM20.6024 21.8445C20.5882 21.8375 20.5752 21.8282 20.5638 21.817C20.5501 21.8033 20.5361 21.7756 20.5224 21.7756C20.5154 21.7678 20.5056 21.7629 20.495 21.7619C20.4647 21.7502 20.4331 21.7417 20.401 21.737C20.3733 21.7233 20.3458 21.7233 20.321 21.7093C20.2933 21.7093 20.2521 21.7231 20.2244 21.7231L20.2247 21.7233C20.1973 21.7212 20.1698 21.7262 20.1447 21.737C20.117 21.7508 20.0924 21.7619 20.0647 21.7756C20.0386 21.7896 20.0153 21.8082 19.9959 21.8308L19.971 21.8445C19.9433 21.8582 19.9433 21.8722 19.9296 21.8968L19.8882 21.9382V21.9384C18.6088 24.1096 16.3294 25.4988 13.8131 25.6401C11.2969 25.7817 8.87614 24.6571 7.36123 22.643C5.84632 20.6287 5.43755 17.9911 6.27165 15.6129C7.10548 13.2346 9.07244 11.43 11.5134 10.8033C11.7549 10.7393 11.8991 10.4924 11.8359 10.2506C11.773 10.0091 11.5263 9.86409 11.2845 9.92622C8.6023 10.6146 6.42698 12.5727 5.46167 15.1682C4.49608 17.7634 4.86263 20.6673 6.44282 22.9413C8.02328 25.2152 10.6166 26.5712 13.3861 26.5714C14.7685 26.5722 16.1295 26.2292 17.3462 25.573L22.1775 30.4072C22.5809 30.8017 23.1216 31.0241 23.6857 31.0277C24.2462 31.0246 24.7829 30.8017 25.1805 30.4072L25.6796 29.9109V29.9107C26.077 29.512 26.3001 28.9723 26.3001 28.4092C26.3001 27.8464 26.077 27.3064 25.6796 26.9078L20.6024 21.8445ZM25.0338 29.2623L24.5484 29.7614H24.5487C24.3157 29.982 24.0074 30.1047 23.6869 30.1047C23.3661 30.1047 23.0578 29.982 22.8251 29.7614L18.1508 25.09C19.0181 24.5032 19.7675 23.7586 20.3598 22.895L25.0341 27.5527H25.0338C25.2611 27.7821 25.3872 28.093 25.3841 28.4158C25.3864 28.7337 25.2601 29.0389 25.0338 29.2623ZM9.85884 21.6543C10.7266 22.5197 11.8822 23.0362 13.1056 23.1058C14.3294 23.1754 15.536 22.7936 16.4964 22.0322C16.5909 21.9548 16.7123 21.9186 16.8337 21.9318C16.9551 21.945 17.0662 22.0063 17.142 22.1019C17.2179 22.1976 17.252 22.3198 17.2368 22.441C17.2217 22.5621 17.1586 22.6722 17.0618 22.7465C15.4718 24.0129 13.3425 24.373 11.4245 23.6999C9.50675 23.0269 8.06951 21.4149 7.61985 19.4326C7.17018 17.4504 7.77103 15.3763 9.21091 13.9414C9.62459 13.5194 10.1019 13.1647 10.6254 12.8908C10.7329 12.8318 10.8597 12.8188 10.977 12.8548C11.094 12.8906 11.1918 12.9724 11.248 13.0811C11.3039 13.1901 11.3138 13.3172 11.2749 13.4334C11.2364 13.5497 11.1522 13.6452 11.042 13.6988C10.6032 13.9305 10.2039 14.23 9.85886 14.5867C8.92125 15.5238 8.39438 16.7949 8.39438 18.1206C8.39438 19.446 8.92119 20.7174 9.85886 21.6542L9.85884 21.6543ZM18.7989 21.4668H18.8127C18.8618 21.4935 18.9167 21.5075 18.9726 21.5083H18.9864C19.0431 21.5075 19.099 21.4935 19.1489 21.4668H19.1627L25.5054 18.6405C25.6656 18.5615 25.7686 18.3997 25.7728 18.2211V11.6113C25.7751 11.5704 25.7704 11.5292 25.7591 11.4898C25.7591 11.4823 25.7528 11.4759 25.7453 11.4761C25.736 11.4435 25.7231 11.4119 25.7065 11.3824C25.7065 11.3687 25.6928 11.3547 25.6788 11.341H25.6791C25.664 11.3203 25.6454 11.3024 25.6239 11.2887C25.6211 11.2721 25.6123 11.2574 25.5991 11.2473C25.5916 11.2398 25.582 11.2349 25.5716 11.2336C25.5579 11.2198 25.5439 11.2198 25.5302 11.2059C25.5204 11.2051 25.5113 11.1999 25.5054 11.1921L19.1629 8.36551C19.0472 8.31321 18.9144 8.31321 18.7989 8.36551L12.4562 11.1921L12.4425 11.2059C12.4148 11.2196 12.404 11.2196 12.3902 11.2336C12.3827 11.2408 12.3729 11.2457 12.3625 11.2473C12.3488 11.261 12.3488 11.275 12.3348 11.2887H12.3351C12.3136 11.3016 12.2955 11.3195 12.2825 11.341C12.2688 11.3547 12.2688 11.3687 12.2548 11.3824C12.2411 11.4101 12.2271 11.421 12.2134 11.4487L12.2137 11.4484C12.2155 11.4637 12.2106 11.479 12.2 11.4898C12.1886 11.5292 12.1839 11.5704 12.186 11.6113V18.2211C12.1901 18.4005 12.2945 18.5626 12.4562 18.6405L18.7989 21.4668ZM13.1016 17.9262V12.3117L15.0155 13.1722L18.5287 14.7358V20.35L13.1016 17.9262ZM24.8708 17.9262L19.43 20.35V14.7355L24.8708 12.3117V17.9262ZM18.9861 13.9413L16.7525 12.9431L21.9754 10.6156L24.1981 11.611L18.9861 13.9413ZM18.9861 9.28108L20.8585 10.1164L15.6329 12.4468L13.7633 11.6112L18.9861 9.28108Z" fill="#515151"/>
</svg>
