<svg width="31" height="34" viewBox="0 0 31 34" fill="none" xmlns="http://www.w3.org/2000/svg">
<path fill-rule="evenodd" clip-rule="evenodd" d="M18.0964 0.500221C16.8684 0.500221 15.8631 1.52931 15.8631 2.78473V8.92833L13.3626 11.9272C13.2198 12.0961 13.1868 12.3346 13.2782 12.5373C13.3693 12.7402 13.5682 12.8695 13.7862 12.8685H28.7667C29.9947 12.8685 31 11.8394 31 10.584V2.78451C31 1.52909 29.9947 0.5 28.7667 0.5L18.0964 0.500221ZM18.0964 1.63802H28.7669C29.3987 1.63802 29.8879 2.14089 29.8879 2.78473V10.5835C29.8879 11.2274 29.3988 11.7292 28.7669 11.7292H14.9889L16.8409 9.50822C16.9275 9.40511 16.9752 9.2738 16.9754 9.13818V2.78451C16.9754 2.14069 17.4645 1.63802 18.0964 1.63802ZM20.7404 4.30932C20.5929 4.30881 20.4511 4.36798 20.3466 4.4744C20.2418 4.58056 20.1827 4.72507 20.182 4.87593C20.1815 5.02755 20.2401 5.17333 20.3451 5.28052C20.4499 5.38769 20.5921 5.44763 20.7404 5.44712H26.2954C26.4429 5.44661 26.5842 5.38591 26.6879 5.27899C26.792 5.17182 26.8501 5.0268 26.8493 4.87594C26.8481 4.56355 26.6008 4.3106 26.2954 4.30933L20.7404 4.30932ZM6.08844 4.9059C3.65256 4.9059 1.67075 6.96057 1.67075 9.47056C1.67075 11.1082 2.51515 12.5515 3.7779 13.3573C1.56073 14.2884 4.63958e-06 16.5198 4.63958e-06 19.1253V22.0278C-0.00123676 22.3419 0.246796 22.5972 0.553919 22.5985H11.6223C11.9297 22.5972 12.1775 22.3417 12.1765 22.0275V19.1251C12.1765 16.5199 10.6158 14.2884 8.39858 13.3571C9.66133 12.5512 10.5057 11.1079 10.5057 9.4703C10.5057 6.96051 8.52432 4.9059 6.08844 4.9059ZM6.08844 6.0437C7.91631 6.0437 9.39281 7.56855 9.39281 9.4703C9.39281 11.3284 7.98381 12.8268 6.21455 12.8949C6.17283 12.8939 6.13063 12.8926 6.08866 12.8926C6.0467 12.8926 6.0045 12.8936 5.96278 12.8949C4.19352 12.8268 2.78331 11.3286 2.78331 9.4703C2.78331 7.56829 4.26058 6.0437 6.08844 6.0437ZM20.7404 7.92029C20.5921 7.91953 20.4499 7.97997 20.3448 8.08715C20.2401 8.19432 20.1815 8.33985 20.182 8.49148C20.1825 8.64259 20.2413 8.78736 20.3461 8.89403C20.4508 9.00044 20.5926 9.05987 20.7403 9.05936H26.2954C26.6013 9.05809 26.8488 8.80437 26.8493 8.49148C26.85 8.34062 26.7919 8.19585 26.6879 8.08868C26.5841 7.9815 26.4429 7.92106 26.2954 7.92055L20.7404 7.92029ZM5.95242 14.0327C5.99736 14.0337 6.0428 14.035 6.08823 14.035C6.13367 14.035 6.17886 14.0345 6.22404 14.0327C8.92662 14.1053 11.0643 16.3395 11.0643 19.1251V21.4606H1.11202V19.1251C1.11202 16.3395 3.2499 14.1053 5.95242 14.0327ZM20.7893 15.8072C18.3534 15.8072 16.3726 17.8628 16.3726 20.3729C16.3726 22.0118 17.2173 23.4544 18.4821 24.2584C16.2619 25.1888 14.6975 27.4209 14.6975 30.0274V32.9286C14.697 33.0802 14.7558 33.226 14.8606 33.3331C14.9654 33.4406 15.1079 33.5005 15.2561 33.5H26.3194C26.4679 33.5008 26.6104 33.4408 26.7157 33.3336C26.8207 33.2265 26.8795 33.0807 26.8788 32.9288V30.0277C26.8788 27.4209 25.3159 25.189 23.0965 24.2587C24.36 23.4544 25.2027 22.012 25.2027 20.3731C25.2027 17.8634 23.2252 15.8072 20.7893 15.8072ZM20.7893 16.946C22.6172 16.946 24.0905 18.4709 24.0905 20.3729C24.0905 22.231 22.6845 23.7294 20.9155 23.7975C20.8735 23.7965 20.8315 23.7952 20.7893 23.7952C20.7474 23.7952 20.7062 23.7962 20.6644 23.7975C18.8952 23.7294 17.485 22.2312 17.485 20.3729C17.485 18.4709 18.9614 16.946 20.7893 16.946ZM20.7893 24.9327C23.5556 24.9327 25.7654 27.1951 25.7654 30.0272V32.3619H15.8099V30.0274C15.8099 27.1953 18.0229 24.9327 20.7893 24.9327Z" fill="#515151"/>
</svg>
