<svg width="40" height="40" viewBox="0 0 40 40" fill="none" xmlns="http://www.w3.org/2000/svg">
<rect width="40" height="40" rx="3" fill="#6D98FD"/>
<path d="M24.8945 23.5762C24.6249 23.5762 24.4062 23.7948 24.4062 24.0645V27.4336C24.4062 28.7798 23.311 29.875 21.9648 29.875H16.693C16.4234 29.875 16.2049 30.0934 16.2047 30.3629L16.204 31.3337L15.0386 30.1684C14.9631 29.9952 14.7905 29.875 14.5908 29.875H11.418C10.0718 29.875 8.97656 28.7798 8.97656 27.4336V19.9141C8.97656 18.5679 10.0718 17.4727 11.418 17.4727H16.3496C16.6192 17.4727 16.8379 17.2541 16.8379 16.9844C16.8379 16.7147 16.6192 16.4961 16.3496 16.4961H11.418C9.5333 16.4961 8 18.0294 8 19.9141V27.4336C8 29.3183 9.5333 30.8516 11.418 30.8516H14.3407L16.3461 32.857C16.4396 32.9504 16.5644 33 16.6915 33C16.7543 33 16.8178 32.9878 16.8781 32.9629C17.0605 32.8874 17.1795 32.7095 17.1797 32.5121L17.1809 30.8516H21.9648C23.8495 30.8516 25.3828 29.3183 25.3828 27.4336V24.0645C25.3828 23.7948 25.1642 23.5762 24.8945 23.5762Z" fill="white"/>
<path d="M25.9031 8H24.6673C20.754 8 17.5703 11.1837 17.5703 15.097C17.5703 19.0103 20.754 22.1939 24.6672 22.1939H25.903C26.5138 22.1939 27.1184 22.1163 27.7043 21.963L29.5298 23.7875C29.6232 23.8808 29.748 23.9304 29.8751 23.9304C29.938 23.9304 30.0015 23.9183 30.0619 23.8932C30.2443 23.8176 30.3633 23.6396 30.3633 23.4421V20.6171C31.1362 19.9912 31.7782 19.2005 32.2288 18.3172C32.7406 17.314 33 16.2306 33 15.097C33 11.1837 29.8163 8 25.9031 8ZM29.5812 19.989C29.4588 20.0813 29.3867 20.2257 29.3867 20.3791V22.2638L28.1918 21.0696C28.0989 20.9767 27.9742 20.9267 27.8466 20.9267C27.7988 20.9267 27.7504 20.9337 27.7033 20.9482C27.1221 21.1269 26.5164 21.2174 25.9031 21.2174H24.6673C21.2924 21.2174 18.5469 18.4718 18.5469 15.097C18.5469 11.7222 21.2925 8.97656 24.6673 8.97656H25.9031C29.2779 8.97656 32.0234 11.7222 32.0234 15.097C32.0234 17.037 31.1333 18.8201 29.5812 19.989Z" fill="white"/>
<path d="M27.484 13.3429C27.4136 12.3207 26.5895 11.4967 25.5673 11.4262C24.9878 11.3864 24.4347 11.5819 24.0115 11.977C23.594 12.3667 23.3546 12.9176 23.3546 13.4885C23.3546 13.7581 23.5732 13.9767 23.8428 13.9767C24.1125 13.9767 24.3311 13.7581 24.3311 13.4885C24.3311 13.1829 24.4543 12.8996 24.6778 12.691C24.9012 12.4825 25.193 12.3793 25.5002 12.4005C26.0387 12.4376 26.4727 12.8717 26.5098 13.4101C26.5473 13.9539 26.1905 14.4345 25.6615 14.5528C25.2329 14.6487 24.9336 15.0212 24.9336 15.4585V16.6316C24.9336 16.9013 25.1522 17.1199 25.4219 17.1199C25.6915 17.1199 25.9101 16.9013 25.9101 16.6316V15.4976C26.894 15.2599 27.5541 14.3596 27.484 13.3429Z" fill="white"/>
<path d="M25.7671 18.2178C25.6763 18.127 25.5503 18.0748 25.4219 18.0748C25.2935 18.0748 25.1675 18.127 25.0767 18.2178C24.9858 18.3087 24.9336 18.4346 24.9336 18.563C24.9336 18.692 24.9859 18.8179 25.0767 18.9088C25.1675 18.9996 25.2935 19.0513 25.4219 19.0513C25.5503 19.0513 25.6763 18.9996 25.7671 18.9088C25.8579 18.8174 25.9102 18.692 25.9102 18.563C25.9102 18.4346 25.8579 18.3087 25.7671 18.2178Z" fill="white"/>
<path d="M21.4277 23.1367H11.125C10.8554 23.1367 10.6367 23.3553 10.6367 23.625C10.6367 23.8947 10.8554 24.1133 11.125 24.1133H21.4277C21.6974 24.1133 21.916 23.8947 21.916 23.625C21.916 23.3553 21.6974 23.1367 21.4277 23.1367Z" fill="white"/>
<path d="M21.7729 26.0142C21.6821 25.9233 21.5562 25.8711 21.4277 25.8711C21.2993 25.8711 21.1733 25.9233 21.0825 26.0142C20.9917 26.105 20.9395 26.231 20.9395 26.3594C20.9395 26.4878 20.9917 26.6138 21.0825 26.7046C21.1733 26.7954 21.2993 26.8477 21.4277 26.8477C21.5562 26.8477 21.6821 26.7954 21.7729 26.7046C21.8638 26.6138 21.916 26.4883 21.916 26.3594C21.916 26.231 21.8637 26.105 21.7729 26.0142Z" fill="white"/>
<path d="M19.5072 25.8711H11.125C10.8554 25.8711 10.6367 26.0897 10.6367 26.3594C10.6367 26.6291 10.8554 26.8477 11.125 26.8477H19.5072C19.7769 26.8477 19.9955 26.6291 19.9955 26.3594C19.9955 26.0897 19.7768 25.8711 19.5072 25.8711Z" fill="white"/>
<path d="M18.2539 20.4023H11.125C10.8554 20.4023 10.6367 20.6209 10.6367 20.8906C10.6367 21.1603 10.8554 21.3789 11.125 21.3789H18.2539C18.5236 21.3789 18.7422 21.1603 18.7422 20.8906C18.7422 20.6209 18.5235 20.4023 18.2539 20.4023Z" fill="white"/>
</svg>
