<svg width="40" height="40" viewBox="0 0 40 40" fill="none" xmlns="http://www.w3.org/2000/svg">
<rect width="40" height="40" rx="3" fill="#6D98FD"/>
<path d="M33 23.9189C33 20.275 30.5447 17.0912 27.0823 16.1318C26.8646 11.0596 22.6708 7 17.5459 7C12.2822 7 8 11.2822 8 16.5459C8 18.2614 8.45662 19.9316 9.3237 21.398L8.0351 26.0565L12.6938 24.7681C14.0417 25.5652 15.5623 26.0142 17.1316 26.0819C18.0908 29.5445 21.2748 32 24.9189 32C26.3735 32 27.788 31.6126 29.0308 30.8766L32.9647 31.9647L31.8766 28.0308C32.6126 26.788 33 25.3735 33 23.9189ZM12.925 23.1842L10.136 23.9558L10.9076 21.1668L10.7317 20.8918C9.90296 19.5952 9.46484 18.0924 9.46484 16.5459C9.46484 12.09 13.09 8.46484 17.5459 8.46484C22.0018 8.46484 25.627 12.09 25.627 16.5459C25.627 21.0018 22.0018 24.627 17.5459 24.627C15.9994 24.627 14.4968 24.1888 13.2 23.3601L12.925 23.1842ZM30.864 29.864L28.7945 29.2914L28.5181 29.4712C27.4468 30.1672 26.202 30.5352 24.9189 30.5352C22.0549 30.5352 19.5381 28.6833 18.6464 26.0279C23.0322 25.5223 26.5223 22.0322 27.0281 17.6462C29.6833 18.5381 31.5352 21.0549 31.5352 23.9189C31.5352 25.202 31.1672 26.4468 30.4712 27.5181L30.2914 27.7945L30.864 29.864Z" fill="white"/>
<path d="M16.8135 20.2324H18.2783V21.6973H16.8135V20.2324Z" fill="white"/>
<path d="M19.0107 14.3242C19.0107 14.7402 18.8414 15.1242 18.5339 15.4055L16.8135 16.9802V18.7676H18.2783V17.6253L19.5229 16.4862C20.1283 15.9321 20.4756 15.1442 20.4756 14.3242C20.4756 12.7087 19.1614 11.3945 17.5459 11.3945C15.9304 11.3945 14.6162 12.7087 14.6162 14.3242H16.0811C16.0811 13.5165 16.7381 12.8594 17.5459 12.8594C18.3537 12.8594 19.0107 13.5165 19.0107 14.3242Z" fill="white"/>
</svg>
