<?xml version="1.0" encoding="UTF-8"?>
<svg width="26px" height="26px" viewBox="0 0 26 26" version="1.1" xmlns="http://www.w3.org/2000/svg" xmlns:xlink="http://www.w3.org/1999/xlink">
    <title>Shape</title>
    <g id="Main" stroke="none" stroke-width="1" fill="none" fill-rule="evenodd">
        <g id="Artboard" transform="translate(-719.000000, -218.000000)" fill="#D3D6DE" fill-rule="nonzero">
            <g id="icons8-cancel" transform="translate(719.000000, 218.000000)">
                <path d="M13,0 C5.82075,0 0,5.82075 0,13 C0,20.17925 5.82075,26 13,26 C20.17925,26 26,20.17925 26,13 C26,5.82075 20.17925,0 13,0 Z M14.5318333,13 C14.5318333,13 17.9324167,16.4005833 18.09925,16.5674167 C18.5228333,16.991 18.5228333,17.67675 18.09925,18.09925 C17.6756667,18.5228333 16.9899167,18.5228333 16.5674167,18.09925 C16.4005833,17.9335 13,14.5318333 13,14.5318333 C13,14.5318333 9.59941667,17.9324167 9.43258333,18.09925 C9.009,18.5228333 8.32325,18.5228333 7.90075,18.09925 C7.47716667,17.6756667 7.47716667,16.9899167 7.90075,16.5674167 C8.0665,16.4005833 11.4681667,13 11.4681667,13 C11.4681667,13 8.06758333,9.59941667 7.90075,9.43258333 C7.47716667,9.009 7.47716667,8.32325 7.90075,7.90075 C8.32433333,7.47716667 9.01008333,7.47716667 9.43258333,7.90075 C9.59941667,8.0665 13,11.4681667 13,11.4681667 C13,11.4681667 16.4005833,8.06758333 16.5674167,7.90075 C16.991,7.47716667 17.67675,7.47716667 18.09925,7.90075 C18.5228333,8.32433333 18.5228333,9.01008333 18.09925,9.43258333 C17.9335,9.59941667 14.5318333,13 14.5318333,13 Z" id="Shape"></path>
            </g>
        </g>
    </g>
</svg>