<svg width="59" height="38" viewBox="0 0 59 38" fill="none" xmlns="http://www.w3.org/2000/svg">
<path d="M30.15 13.7018C26.6558 13.7018 23.6151 15.6674 22.0838 18.5529C20.552 15.6674 17.5128 13.7018 14.0162 13.7018C11.9631 13.7018 10.0663 14.3811 8.53577 15.5281V7.83517C8.51767 6.84112 7.707 6.04541 6.70955 6.04541C5.71209 6.04541 4.9093 6.84112 4.88647 7.83517V22.9838H4.88831C4.96886 27.9577 9.02216 31.9646 14.0162 31.9646C17.5128 31.9646 20.552 29.9972 22.0838 27.1145C23.6151 29.9972 26.6558 31.9646 30.15 31.9646C35.1913 31.9646 39.2809 27.8767 39.2809 22.8314C39.2809 17.7887 35.1913 13.7018 30.15 13.7018ZM14.0162 28.3087C10.9911 28.3087 8.53577 25.8581 8.53577 22.8327C8.53577 19.8083 10.9911 17.3574 14.0162 17.3574C17.0411 17.3574 19.4913 19.8083 19.4913 22.8314C19.4913 25.8573 17.0411 28.3087 14.0162 28.3087ZM30.15 28.3087C27.1241 28.3087 24.6706 25.8573 24.6706 22.8314C24.6706 19.8083 27.1241 17.3574 30.15 17.3574C33.1746 17.3574 35.6268 19.8083 35.6268 22.8314C35.6268 25.8573 33.1746 28.3087 30.15 28.3087Z" fill="#6A6F73"/>
<path d="M53.4493 28.9074L48.4861 22.8195L53.4553 16.7199C54.0836 15.9153 53.9034 14.7916 53.036 14.1947C52.1677 13.5927 50.9493 13.7469 50.2775 14.5277V14.5266L46.0022 19.7663L41.7309 14.5266V14.5277C41.0658 13.7469 39.8399 13.5927 38.9741 14.1947C38.1084 14.7921 37.9273 15.9153 38.5588 16.7199H38.557L43.5175 22.8195L38.557 28.9074H38.5588C37.9273 29.7146 38.1084 30.8346 38.9741 31.434C39.8399 32.0336 41.0658 31.8809 41.7309 31.099L46.0022 25.8667L50.2715 31.099C50.9441 31.8809 52.162 32.0336 53.0303 31.434C53.8979 30.8346 54.0789 29.7146 53.4493 28.9074Z" fill="#6A6F73"/>
</svg>
