<svg width="101" height="38" viewBox="0 0 101 38" fill="none" xmlns="http://www.w3.org/2000/svg">
<mask id="mask0_501_356" style="mask-type:luminance" maskUnits="userSpaceOnUse" x="5" y="6" width="92" height="26">
<path d="M96.7046 6.04541H5.15918V31.9545H96.7046V6.04541Z" fill="white"/>
</mask>
<g mask="url(#mask0_501_356)">
<path d="M72.6648 25.6704C69.5387 25.6704 67.5961 23.865 67.5961 20.9549C67.5961 17.9348 69.3887 16.0558 72.2749 16.0558H72.5171C72.8791 16.0558 73.3776 16.0676 74.0586 16.1523V12.5068H76.0975V25.3419C76.0975 25.3419 74.1603 25.6704 72.6648 25.6704ZM72.6465 17.6563C70.6714 17.6563 69.7111 18.7191 69.7111 20.9043C69.7111 22.8663 70.8699 24.0859 72.7315 24.0859C73.0894 24.0859 73.4993 24.0623 74.058 24.0146V17.787C73.4999 17.6975 73.0499 17.6563 72.6465 17.6563ZM44.7375 25.376L39.23 15.7937L39.2282 25.376H37.3087V13.2452H39.996L45.5035 22.7421L45.5012 13.2452H47.4461V25.376H44.7375ZM62.2806 25.5627C61.3533 25.5627 60.3865 25.459 59.2353 25.2382L59.1107 25.2146V23.5199L59.2927 23.5588C60.3079 23.775 61.1844 23.9593 62.0615 23.9593C62.7696 23.9593 64.4192 23.8485 64.4192 22.8092C64.4192 21.9377 63.2793 21.7187 62.3638 21.5438L62.306 21.532C62.1347 21.5002 61.9735 21.4678 61.8376 21.4337C60.4945 21.0863 59.0617 20.564 59.0617 18.7698C59.0617 17.0198 60.4508 16.0169 62.8736 16.0169C64.0364 16.0169 64.8805 16.1406 65.559 16.2419L65.8886 16.2902V17.9348L65.7132 17.903C64.9454 17.7622 64.0453 17.6174 63.1801 17.6174C62.218 17.6174 61.0763 17.797 61.0763 18.6502C61.0763 19.3586 62.0106 19.5612 63.0927 19.7961C64.6058 20.1224 66.4817 20.5322 66.4817 22.5907C66.4817 24.4792 64.9519 25.5627 62.2806 25.5627ZM81.8211 25.5627C79.7108 25.5627 77.7564 25.1917 77.7564 22.5054C77.7564 19.5817 80.7786 19.5817 82.5854 19.5817C82.7649 19.5817 83.6142 19.6212 83.8747 19.6324C83.8723 17.9925 83.8516 17.6015 81.4661 17.6015C80.5206 17.6015 79.4704 17.7875 78.5432 17.9536L78.366 17.9854V16.3661L78.4853 16.3408C79.5602 16.1229 80.5968 16.0169 81.6533 16.0169C83.965 16.0169 85.9235 16.249 85.9235 19.1084V25.3442L85.783 25.3601C84.1818 25.5391 82.9102 25.5627 81.8211 25.5627ZM82.5346 21.0286C80.7922 21.0286 79.7126 21.2841 79.7126 22.556C79.7126 24.0282 81.0899 24.15 82.3822 24.15C82.8642 24.15 83.7318 24.0882 83.9969 24.0694V21.0792C83.6236 21.0633 82.652 21.0286 82.5346 21.0286ZM53.2134 25.5627C51.1002 25.5627 49.1465 25.1917 49.1465 22.5054C49.1465 19.5817 52.1686 19.5817 53.9747 19.5817C54.1549 19.5817 55.0059 19.6212 55.267 19.6324C55.2647 17.9925 55.2416 17.6015 52.8562 17.6015C51.91 17.6015 50.8599 17.7875 49.9326 17.9536L49.7554 17.9854V16.3661L49.8776 16.3408C50.9191 16.1261 51.9798 16.0176 53.0433 16.0169C55.3544 16.0169 57.3135 16.249 57.3135 19.1084V25.3442L57.1724 25.3601C55.5718 25.5391 54.3002 25.5627 53.2134 25.5627ZM53.924 21.0286C52.1823 21.0286 51.105 21.2841 51.105 22.556C51.105 24.0282 52.4799 24.15 53.7721 24.15C54.2565 24.15 55.1241 24.0882 55.3893 24.0694V21.0792C55.013 21.0633 54.0415 21.0286 53.924 21.0286Z" fill="#6A6F73"/>
<mask id="mask1_501_356" style="mask-type:alpha" maskUnits="userSpaceOnUse" x="87" y="15" width="10" height="15">
<path d="M87.2548 15.467H96.1304V29.5992H87.2548V15.467Z" fill="#6A6F73"/>
</mask>
<g mask="url(#mask1_501_356)">
<path d="M94.0421 29.4978V25.5185C93.2467 25.6292 92.8243 25.6292 92.4832 25.6292C91.6748 25.6292 90.7775 25.4543 90.0832 25.1622C88.5278 24.5174 87.6011 22.8805 87.6011 20.78C87.6011 19.7319 87.8576 17.8153 89.571 16.7824C90.4321 16.2701 91.4468 16.051 92.9746 16.051C93.5204 16.051 94.2589 16.0923 94.9722 16.1335L96.1303 16.1935V28.5757L94.0421 29.4978ZM92.8218 17.6521C90.7499 17.6515 89.6997 18.7056 89.6997 20.78C89.6997 23.4511 91.2663 24.0122 92.5834 24.0122C92.9038 24.0122 93.2639 24.0122 94.0619 23.911V17.7098C93.4375 17.6686 93.1482 17.6521 92.8218 17.6521Z" fill="#6A6F73"/>
</g>
<mask id="mask2_501_356" style="mask-type:alpha" maskUnits="userSpaceOnUse" x="19" y="6" width="17" height="20">
<path d="M19.9247 6.05493H35.8713V25.4773H19.9247V6.05493Z" fill="#6A6F73"/>
</mask>
<g mask="url(#mask2_501_356)">
<path d="M28.2004 6.05493L21.4567 24.5269C21.3734 24.7544 21.2274 24.9538 21.0357 25.1024C20.8439 25.2511 20.614 25.3428 20.3723 25.3672V25.376H27.5011C28.0592 25.376 28.537 25.0222 28.7148 24.5275L35.4608 6.05493H28.2004Z" fill="#6A6F73"/>
</g>
<path d="M19.7906 25.0958C20.204 25.0958 20.5661 24.8908 20.7875 24.5805C20.8106 24.5481 20.8915 24.4351 20.9488 24.2814L23.4223 17.5026L21.9753 13.5439C21.891 13.3434 21.7545 13.169 21.5798 13.0389C21.4052 12.9087 21.1989 12.8275 20.9822 12.8035C20.7655 12.7796 20.5463 12.8139 20.3474 12.9029C20.1485 12.9918 19.977 13.1322 19.8508 13.3095C19.8272 13.3419 19.731 13.4862 19.6896 13.6086L17.2161 20.385L18.6696 24.3597C18.7639 24.5782 18.9203 24.7643 19.1195 24.8951C19.3188 25.0259 19.552 25.0957 19.7906 25.0958Z" fill="#6A6F73"/>
<mask id="mask3_501_356" style="mask-type:alpha" maskUnits="userSpaceOnUse" x="4" y="11" width="17" height="21">
<path d="M4.5686 11.9338H20.5152V31.835H4.5686V11.9338Z" fill="#6A6F73"/>
</mask>
<g mask="url(#mask3_501_356)">
<path d="M20.3191 12.5132H13.1118C12.5537 12.5132 12.0759 12.8653 11.8957 13.3623L5.1521 31.8343H12.4125L19.1567 13.3629C19.2443 13.1226 19.4015 12.9137 19.6085 12.7628C19.8155 12.6118 20.0629 12.5258 20.3191 12.5155V12.5132Z" fill="#6A6F73"/>
</g>
</g>
</svg>
