<svg width="116" height="38" viewBox="0 0 116 38" fill="none" xmlns="http://www.w3.org/2000/svg">
<path d="M12.6592 11.2273V24.1987H18.6894V16.4158H22.1353V24.1987H28.1653V11.2273H12.6592Z" fill="#6A6F73"/>
<path d="M33.6818 11.2273V24.3602H36.5221V16.0657L42.817 24.3602H45.2479V11.2273H42.4332V19.3425L36.3174 11.2273H33.6818ZM69.4805 11.2273L64.0301 24.3602H66.9472L68.1499 21.4417H73.3189L74.5216 24.3602H77.4898L72.065 11.2273H69.4805ZM58.1703 11.8417V14.3761H56.9932V16.8081H58.1703V21.5186C58.1703 23.8266 59.3586 24.5137 61.0874 24.5137C62.0362 24.5137 62.7189 24.3048 63.3136 23.9506V21.6721C62.9032 21.8985 62.4272 22.0305 61.9063 22.0305C61.2747 22.0305 61.0107 21.709 61.0107 21.0577V16.8081H63.3392V14.3761H61.0107V11.8417H58.1703ZM51.5684 14.1969C48.6656 14.1969 46.6297 16.547 46.6297 19.3938V19.4193C46.6297 22.4718 48.8539 24.5905 51.8498 24.5905C53.6534 24.5905 54.9901 23.8758 55.9185 22.7218L54.3063 21.2881C53.5244 22.0152 52.8243 22.3122 51.8754 22.3122C50.6093 22.3122 49.726 21.6506 49.4445 20.3666H56.3791C56.4006 20.1064 56.4046 19.8218 56.4046 19.5985C56.4046 16.7702 54.897 14.1969 51.5684 14.1969ZM84.1429 14.1969C82.6731 14.1969 81.7089 14.8799 81.0211 15.8097V14.3761H78.2064V27.3298H81.0211V23.0545C81.6905 23.8553 82.6372 24.5393 84.1429 24.5393C86.5063 24.5393 88.6722 22.7258 88.6722 19.3938V19.3425C88.6722 16.0114 86.4695 14.1969 84.1429 14.1969ZM95.7599 14.1969C94.2915 14.1969 93.3519 14.8799 92.664 15.8097V14.3761H89.8236V27.3298H92.664V23.0545C93.3324 23.8553 94.2526 24.5393 95.7599 24.5393C98.1229 24.5393 100.29 22.7258 100.29 19.3938V19.3425C100.29 16.0114 98.0857 14.1969 95.7599 14.1969ZM100.008 14.3761V14.6833H100.622V16.6033H100.955V14.6833H101.595V14.3761H100.008ZM102.004 14.3761V16.6033H102.337V14.7601L103.002 16.6033H103.206L103.872 14.7601V16.6033H104.205V14.3761H103.692L103.104 16.0657L102.515 14.3761H102.004ZM70.7344 14.6833L72.4488 18.9074H68.9944L70.7344 14.6833ZM51.5684 16.4754C52.7578 16.4754 53.4998 17.3068 53.6667 18.5745H49.3933C49.6165 17.2924 50.3943 16.4754 51.5684 16.4754ZM83.4009 16.6033C84.7202 16.6033 85.8318 17.6867 85.8317 19.3425V19.3938C85.8317 21.069 84.7202 22.1329 83.4009 22.1329C82.0815 22.1329 80.9955 21.0506 80.9955 19.3938V19.3425C80.9955 17.6867 82.0815 16.6033 83.4009 16.6033ZM95.044 16.6033C96.3653 16.6033 97.4751 17.6867 97.4751 19.3425V19.3938C97.4751 21.069 96.3653 22.1329 95.044 22.1329C93.7255 22.1329 92.6129 21.0506 92.6129 19.3938V19.3425C92.6129 17.6867 93.7255 16.6033 95.044 16.6033Z" fill="#6A6F73"/>
</svg>
