<svg width="32" height="32" viewBox="0 0 32 32" fill="none" xmlns="http://www.w3.org/2000/svg">
<path fill-rule="evenodd" clip-rule="evenodd" d="M16.4321 0.45459C19.4932 0.45459 22.4856 1.36232 25.0308 3.06301C27.5761 4.76369 29.5599 7.18093 30.7313 10.0091C31.9027 12.8372 32.2093 15.9493 31.612 18.9515C31.0148 21.9539 29.5409 24.7117 27.3762 26.8762C25.2117 29.0409 22.4539 30.5148 19.4515 31.112C16.4493 31.7093 13.3372 31.4027 10.5091 30.2313C7.68093 29.0599 5.26369 27.0761 3.56301 24.5308C1.86232 21.9856 0.95459 18.9932 0.95459 15.9321C0.972484 11.8327 2.60888 7.9063 5.5076 5.0076C8.4063 2.10888 12.3327 0.472484 16.4321 0.45459ZM16.4321 2.39777C13.7634 2.40353 11.1564 3.19976 8.94003 4.68593C6.72359 6.17212 4.9971 8.28164 3.97854 10.7481C2.95998 13.2146 2.69499 15.9277 3.21701 18.5447C3.73904 21.1617 5.02469 23.5654 6.91169 25.4525C8.79865 27.3394 11.2023 28.625 13.8193 29.147C16.4364 29.6691 19.1493 29.4041 21.616 28.3855C24.0824 27.367 26.1919 25.6406 27.6781 23.424C29.1643 21.2077 29.9606 18.6006 29.9663 15.9321C29.9586 12.3467 28.5296 8.91071 25.9925 6.37723C23.4555 3.84384 20.0174 2.41977 16.4321 2.4172V2.39777ZM7.39628 8.66449C8.30154 7.53744 9.40855 6.58865 10.6607 5.86639L14.0711 15.2616H18.8707L22.2616 5.90526C23.4291 6.5915 24.468 7.47587 25.3318 8.51879L20.4739 21.2272L18.6666 16.6413H14.0128L12.2347 21.2272L7.39628 8.66449ZM27.2847 11.8222C28.2729 14.4814 28.2578 17.4098 27.2419 20.0587C26.226 22.7075 24.2791 24.8951 21.7661 26.2115L27.2847 11.8222ZM19.3565 27.1539C17.3753 27.662 15.2958 27.6452 13.3229 27.1054V26.8624L16.3155 19.0897L19.2982 26.8624L19.3565 27.1539ZM10.8648 26.0852C9.04073 25.0897 7.51805 23.6219 6.45656 21.8355C5.39495 20.0491 4.83357 18.0101 4.83124 15.9321C4.82103 14.6078 5.04468 13.2921 5.49192 12.0457L10.8648 26.0852ZM16.4321 4.33124C17.432 4.32908 18.428 4.45645 19.3954 4.71016L16.4806 12.8132L13.5658 4.70044C14.5018 4.45677 15.4649 4.33271 16.4321 4.33124Z" fill="#6A6F73"/>
</svg>
