<svg width="48" height="46" viewBox="0 0 48 46" fill="none" xmlns="http://www.w3.org/2000/svg">
<g clip-path="url(#clip0_130_1253)">
<path d="M46.8771 22.251L41.8397 16.491L42.5416 8.87295L35.0887 7.18005L31.1868 0.594238L24.1675 3.60843L17.148 0.594238L13.2462 7.18005L5.79325 8.85231L6.49518 16.491L1.45776 22.251L6.49518 28.011L5.79325 35.6496L13.2462 37.3426L17.148 43.949L24.1675 40.9141L31.1868 43.9284L35.0887 37.3426L42.5416 35.6496L41.8397 28.0316L46.8771 22.251ZM38.7223 25.3064L37.5661 26.6484L37.7313 28.4032L38.103 32.429L34.1803 33.3168L32.4461 33.709L31.5378 35.2368L29.4939 38.7052L25.819 37.1155L24.1675 36.4136L22.5364 37.1155L18.8616 38.7052L16.8178 35.2574L15.9093 33.7296L14.1752 33.3374L10.2526 32.4497L10.6242 28.4032L10.7894 26.6484L9.63325 25.3064L6.97003 22.2716L9.63325 19.2161L10.7894 17.8741L10.6036 16.0988L10.232 12.0936L14.1545 11.2059L15.8887 10.8136L16.7972 9.28586L18.841 5.81747L22.5158 7.40714L24.1675 8.10908L25.7984 7.40714L29.4732 5.81747L31.5171 9.28586L32.4255 10.8136L34.1597 11.2059L38.0822 12.0936L37.7106 16.1194L37.5455 17.8741L38.7016 19.2161L41.3648 22.251L38.7223 25.3064Z" fill="url(#paint0_linear_130_1253)"/>
<path d="M20.2238 25.8845L15.4341 21.0741L12.3787 24.1503L20.2238 32.0161L35.3774 16.8212L32.3218 13.7451L20.2238 25.8845Z" fill="url(#paint1_linear_130_1253)"/>
</g>
<defs>
<linearGradient id="paint0_linear_130_1253" x1="1.45776" y1="4.33924" x2="50.8631" y2="5.85695" gradientUnits="userSpaceOnUse">
<stop offset="0.0001" stop-color="#FCBB03"/>
<stop offset="1" stop-color="#DF871B"/>
</linearGradient>
<linearGradient id="paint1_linear_130_1253" x1="12.3787" y1="15.3234" x2="37.3852" y2="16.2464" gradientUnits="userSpaceOnUse">
<stop offset="0.0001" stop-color="#FCBB03"/>
<stop offset="1" stop-color="#DF871B"/>
</linearGradient>
<clipPath id="clip0_130_1253">
<rect width="48" height="44.9032" fill="white" transform="translate(0 0.54834)"/>
</clipPath>
</defs>
</svg>
