<svg width="48" height="49" viewBox="0 0 48 49" fill="none" xmlns="http://www.w3.org/2000/svg">
<rect y="0.171875" width="48" height="48" rx="5" fill="#E28C19" fill-opacity="0.15"/>
<g clip-path="url(#clip0_130_1260)">
<path d="M39.6722 36.0382C41.8054 36.0382 43.5315 34.2927 43.5315 32.1595L43.5509 12.7655C43.5509 11.7368 43.1423 10.7502 42.4149 10.0228C41.6875 9.29538 40.7008 8.88672 39.6722 8.88672H8.64185C6.48912 8.88672 4.76307 10.6128 4.76307 12.7655V32.1595C4.76307 33.1881 5.17172 34.1747 5.89914 34.9022C6.62655 35.6296 7.61313 36.0382 8.64185 36.0382H0.884277V39.917H47.4297V36.0382H39.6722ZM8.64185 32.1595V12.7655H39.6722V32.1788L8.64185 32.1595ZM26.0963 18.8358C18.5522 19.8831 15.5461 25.0418 14.46 30.22C17.1558 26.5934 20.7049 24.9449 26.0963 24.9449V29.1922L33.854 21.9388L26.0963 14.7049V18.8358Z" fill="url(#paint0_linear_130_1260)"/>
</g>
<defs>
<linearGradient id="paint0_linear_130_1260" x1="0.884277" y1="11.5671" x2="51.4645" y2="13.7919" gradientUnits="userSpaceOnUse">
<stop offset="0.0001" stop-color="#FCBB03"/>
<stop offset="1" stop-color="#DF871B"/>
</linearGradient>
<clipPath id="clip0_130_1260">
<rect width="48" height="32" fill="white" transform="translate(0 8.17188)"/>
</clipPath>
</defs>
</svg>
