<svg width="48" height="49" viewBox="0 0 48 49" fill="none" xmlns="http://www.w3.org/2000/svg">
<rect y="0.34375" width="48" height="48" rx="5" fill="#E28C19" fill-opacity="0.15"/>
<g clip-path="url(#clip0_130_1267)">
<path d="M25.666 16.3019C23.682 16.3019 22.0607 14.6592 22.0607 12.6752C22.0607 11.719 22.4406 10.802 23.1167 10.1258C23.7929 9.4497 24.7099 9.06986 25.666 9.06986C27.6715 9.06986 29.2927 10.6912 29.2927 12.6752C29.2927 14.6592 27.6715 16.3019 25.666 16.3019ZM19.1807 41.3898L6.53006 38.8724L7.25539 35.2458L16.1087 37.0591L18.9887 22.4244L15.746 23.7044V29.8058H12.1407V21.3578L21.5274 17.3684L22.9567 17.1978C24.2367 17.1978 25.3035 17.9231 26.0075 19.0111L27.842 21.8911C29.2927 24.4724 32.1727 26.2218 35.6075 26.2218V29.8058C31.6395 29.8058 28.0127 28.0351 25.666 25.3258L24.5995 30.7444L28.3755 34.3498V47.9391H24.77V37.0591L20.9727 33.4538L19.1807 41.3898ZM42.0075 47.9391H37.7407V5.27253H10.0074V33.2404L5.74072 32.3444V1.00586H42.0075V47.9391ZM10.0074 47.9391H5.74072V41.0698L10.0074 41.9658V47.9391Z" fill="url(#paint0_linear_130_1267)"/>
</g>
<defs>
<linearGradient id="paint0_linear_130_1267" x1="5.74072" y1="5.05997" x2="45.2071" y2="5.95423" gradientUnits="userSpaceOnUse">
<stop offset="0.0001" stop-color="#FCBB03"/>
<stop offset="1" stop-color="#DF871B"/>
</linearGradient>
<clipPath id="clip0_130_1267">
<rect width="36.8" height="48" fill="white" transform="translate(5.6001 0.34375)"/>
</clipPath>
</defs>
</svg>
