<svg width="17" height="17" viewBox="0 0 17 17" fill="none" xmlns="http://www.w3.org/2000/svg">
<g clip-path="url(#clip0_90_48)">
<path fill-rule="evenodd" clip-rule="evenodd" d="M13.1511 1.16666L9.81779 4.5V11.8333L13.1511 8.83333V1.16666ZM14.4845 3.83333V12.8333C13.7511 12.6 12.9511 12.5 12.1511 12.5C11.0178 12.5 9.38446 12.9333 8.48446 13.5V4.5C7.51779 3.76666 6.11779 3.5 4.81779 3.5C3.51779 3.5 2.11779 3.76666 1.15112 4.5V14.2667C1.15112 14.4333 1.31779 14.6 1.48446 14.6C1.51779 14.6 1.54279 14.5917 1.56779 14.5833C1.59279 14.575 1.61779 14.5667 1.65112 14.5667C2.55112 14.1333 3.85112 13.8333 4.81779 13.8333C6.11779 13.8333 7.51779 14.1 8.48446 14.8333C9.38446 14.2667 11.0178 13.8333 12.1511 13.8333C13.2511 13.8333 14.3845 14.0333 15.3178 14.5333C15.3845 14.5667 15.4178 14.5667 15.4845 14.5667C15.6511 14.5667 15.8178 14.4 15.8178 14.2333V4.5C15.4178 4.2 14.9845 4 14.4845 3.83333ZM4.81779 12.5C5.49112 12.5 6.31779 12.56 7.15112 12.7733V5.25333C6.54446 4.98666 5.72446 4.83333 4.81779 4.83333C3.91112 4.83333 3.09112 4.98666 2.48446 5.25333V12.8467C3.27112 12.6267 4.11112 12.5 4.81779 12.5Z" fill="#333333"/>
</g>
<defs>
<clipPath id="clip0_90_48">
<rect width="16" height="16" fill="white" transform="translate(0.484375 0.5)"/>
</clipPath>
</defs>
</svg>
