<svg width="17" height="17" viewBox="0 0 17 17" fill="none" xmlns="http://www.w3.org/2000/svg">
<g clip-path="url(#clip0_90_53)">
<path fill-rule="evenodd" clip-rule="evenodd" d="M8.72759 1.83334C5.04763 1.83334 2.06763 4.82 2.06763 8.5C2.06763 12.18 5.04763 15.1667 8.72759 15.1667C12.4143 15.1667 15.401 12.18 15.401 8.5C15.401 4.82 12.4143 1.83334 8.72759 1.83334ZM8.73429 13.8333C5.78763 13.8333 3.40096 11.4467 3.40096 8.5C3.40096 5.55334 5.78763 3.16667 8.73429 3.16667C11.681 3.16667 14.0676 5.55334 14.0676 8.5C14.0676 11.4467 11.681 13.8333 8.73429 13.8333ZM8.06763 9.2133L11.7276 11.4067L12.4077 10.26L9.40096 8.45337V4.78H8.06763V9.2133Z" fill="#333333"/>
</g>
<defs>
<clipPath id="clip0_90_53">
<rect width="16" height="16" fill="white" transform="translate(0.734375 0.5)"/>
</clipPath>
</defs>
</svg>
