<svg width="17" height="16" viewBox="0 0 17 16" fill="none" xmlns="http://www.w3.org/2000/svg">
<path d="M9.98306 14.3419L9.20116 12.7545C9.05745 12.4483 8.77156 12.258 8.45503 12.258C8.32351 12.258 8.19213 12.2928 8.07488 12.3585L7.49918 12.6813C7.30086 12.7924 7.15396 12.982 7.08536 13.2147C7.01676 13.4477 7.03506 13.6952 7.13914 13.9164L7.92103 15.5039C8.06475 15.81 8.35064 16 8.66717 16C8.79869 16 8.93021 15.9652 9.04746 15.8995L9.62288 15.577C9.82119 15.4659 9.96809 15.2765 10.0367 15.0436C10.1054 14.8106 10.0871 14.5631 9.98306 14.3419ZM7.60189 13.7111L7.57875 13.6638C7.53758 13.5762 7.53038 13.4758 7.5581 13.3809C7.58609 13.2859 7.64568 13.2089 7.72592 13.1638L8.30148 12.8412C8.34943 12.8142 8.40113 12.8006 8.4549 12.8006C8.5842 12.8006 8.70075 12.8778 8.76145 13.0068L8.77323 13.0307C8.54539 13.4485 7.60189 13.7111 7.60189 13.7111ZM8.06519 14.6411C8.06367 14.6415 8.06256 14.6427 8.06104 14.6433L7.84055 14.1957C8.13629 14.1079 8.74595 13.8926 9.02977 13.5513L9.22961 13.9571C9.02118 14.407 8.06519 14.6411 8.06519 14.6411ZM9.564 14.8772C9.536 14.9722 9.47655 15.0491 9.39617 15.0942L8.82061 15.417C8.65749 15.5089 8.44671 15.4341 8.36064 15.2515L8.30257 15.1335C8.61647 15.0379 9.21904 14.817 9.48303 14.4718L9.54345 14.5944C9.58461 14.6821 9.59182 14.7825 9.56396 14.8773L9.564 14.8772Z" fill="#1C68FF"/>
<path d="M7.00122 10.5875C6.96852 10.4546 6.93692 10.3193 6.90504 10.1827C6.7817 9.6545 6.65268 9.10962 6.44592 8.59823C6.43996 8.58339 6.43539 8.56795 6.42929 8.55326C6.42832 8.55099 6.4268 8.54917 6.42569 8.5469C6.42084 8.5354 6.41849 8.52223 6.41183 8.51163C6.22363 8.06895 5.99607 7.71316 5.7171 7.42524C5.18465 6.87567 4.47328 6.57306 3.71398 6.57306C2.86031 6.57306 2.03531 6.95245 1.4506 7.61387C1.11259 7.99599 0.851764 8.49256 0.695981 9.05C0.487548 9.79695 0.445141 10.6334 0.569867 11.5359C0.640546 12.0469 0.760423 12.7103 1.06074 13.3108C1.17189 13.5332 1.30049 13.763 1.48718 13.9383C1.50492 13.9548 1.54969 13.988 1.6054 14.0264C1.63422 14.0464 1.68869 14.0841 1.72971 14.1153V15.4883C1.72971 15.6382 1.84085 15.7596 1.97805 15.7596H4.77694C4.91414 15.7596 5.02529 15.6382 5.02529 15.4883C5.02529 15.3542 5.02584 15.2568 5.0264 15.1711C5.02695 15.0767 5.02751 14.9961 5.02695 14.8965C5.42413 14.8924 5.6801 14.8681 5.78877 14.8238C6.19052 14.6605 6.39576 13.9906 6.38498 13.443C6.38248 13.3128 6.29545 13.2029 6.17793 13.1812C5.86542 13.1241 5.64495 13.0049 5.54057 12.8364C5.51244 12.7909 5.49456 12.7451 5.4832 12.7024H5.4922L6.236 12.7028H6.23614C6.36364 12.7028 6.47035 12.5976 6.48338 12.4592L6.5456 11.794H6.9723C7.03036 11.794 7.08649 11.7719 7.13112 11.7313C7.2916 11.5855 7.2467 11.4093 7.03036 10.6863C7.01567 10.6369 7.00473 10.6007 7.00126 10.5876L7.00122 10.5875ZM6.07422 11.4951L6.01199 12.1602L5.49217 12.1599C5.19102 12.1599 5.19102 12.1599 5.1518 12.1743C5.07142 12.2035 5.01031 12.2756 4.98966 12.3652C4.98037 12.4053 4.90554 12.7668 5.12076 13.1266C5.27417 13.3829 5.52876 13.5638 5.87938 13.6658C5.84321 14.0048 5.7128 14.2761 5.6194 14.3142C5.55787 14.3342 5.27196 14.3546 4.90026 14.3546C4.84732 14.3546 4.80574 14.3542 4.78232 14.3534C4.71455 14.3496 4.64901 14.3798 4.60078 14.432C4.55255 14.4841 4.52608 14.5555 4.52719 14.6296C4.53162 14.8841 4.53079 15.0046 4.52968 15.1675C4.52954 15.1835 4.52954 15.2 4.52941 15.2171L2.22625 15.217V14.0416C2.2311 14.0285 2.23747 14.011 2.24288 13.9968C2.25175 13.9728 2.26048 13.9494 2.27046 13.9223C2.28071 13.8938 2.29194 13.862 2.30316 13.8305C2.31176 13.8063 2.32007 13.7837 2.32894 13.7579C2.341 13.723 2.35333 13.6852 2.36581 13.6475C2.3744 13.6213 2.38313 13.5965 2.39186 13.5692C2.40447 13.5299 2.4168 13.4879 2.42928 13.4464C2.43787 13.4181 2.44646 13.391 2.45464 13.362C2.46711 13.3184 2.47848 13.2731 2.49026 13.2281C2.49774 13.1995 2.50578 13.1717 2.51271 13.1426C2.52435 13.0949 2.53405 13.0466 2.5443 12.9983C2.54999 12.9711 2.55664 12.9441 2.56177 12.9169C2.57188 12.8637 2.57909 12.8107 2.58657 12.7581C2.58976 12.7356 2.59433 12.7131 2.59697 12.6907C2.60584 12.616 2.61193 12.5422 2.61401 12.4704C2.61609 12.3973 2.59101 12.3264 2.54458 12.2737C2.51035 12.2348 2.4667 12.2085 2.4193 12.197C2.34945 12.1619 1.62453 11.7611 1.81547 10.6345C1.89557 10.1626 2.1898 10.0634 2.42232 10.0634C2.60206 10.0634 2.79274 10.1273 2.90847 10.2262C2.96862 10.2775 3.04748 10.2942 3.12231 10.274C3.19645 10.2539 3.25882 10.1958 3.29 10.1193C3.2918 10.1148 3.48444 9.65755 4.2759 9.08058C4.29932 9.06347 4.32274 9.04833 4.34616 9.03289L4.3657 9.02002C4.66366 8.82533 4.97535 8.73479 5.34592 8.73479L5.36976 8.73495C5.41909 8.73555 5.47093 8.73691 5.52317 8.73979C5.52955 8.74009 5.53551 8.74024 5.54174 8.7407C5.59219 8.74373 5.64277 8.74857 5.69238 8.75523C5.70056 8.75629 5.7086 8.75735 5.71678 8.75856C5.76542 8.76583 5.8124 8.77567 5.85675 8.78824C5.86423 8.79036 5.8713 8.79263 5.87864 8.7949C5.92258 8.80867 5.9636 8.82518 5.99963 8.84592C6.00143 8.84682 6.00393 8.84743 6.00573 8.84849C6.00601 8.8491 6.00628 8.84985 6.00642 8.85046C6.18894 9.31205 6.3084 9.8224 6.42385 10.3169C6.45642 10.4555 6.48843 10.593 6.5217 10.7286C6.52571 10.7445 6.53916 10.7907 6.55828 10.8546C6.60651 11.0157 6.64462 11.148 6.67261 11.2514H6.3213C6.19394 11.2514 6.08724 11.3566 6.07422 11.4951Z" fill="#1C68FF"/>
<path d="M5.60665 10.5732C5.60665 10.8006 5.43785 10.9848 5.22984 10.9848C5.02168 10.9848 4.85303 10.8006 4.85303 10.5732C4.85303 10.3459 5.02169 10.1617 5.22984 10.1617C5.43786 10.1617 5.60665 10.3459 5.60665 10.5732Z" fill="#1C68FF"/>
<path d="M16.3041 9.1493C16.1485 8.59233 15.8877 8.09574 15.5495 7.71348C14.9648 7.05206 14.1398 6.67279 13.2861 6.67279C12.5268 6.67279 11.8155 6.97543 11.283 7.52497C10.9953 7.82186 10.7622 8.19066 10.5705 8.65271C10.3535 9.17608 10.2223 9.73728 10.0953 10.2799C10.0632 10.4172 10.0314 10.5531 9.99692 10.6933C9.70145 11.8963 9.7404 11.9314 9.86942 12.0481C9.90808 12.083 9.95534 12.1045 10.0052 12.1093C10.0169 12.1105 10.0184 12.1107 10.4504 12.1107L10.5368 13.2321C10.5387 13.2542 10.5427 13.2754 10.5488 13.2955C10.5635 13.8278 10.8246 14.4883 11.2066 14.6436C11.3348 14.6957 11.7086 14.742 11.9729 14.7643C11.9719 14.9286 11.9726 15.0818 11.9734 15.2429L11.9744 15.5879C11.9744 15.7378 12.0856 15.8592 12.2228 15.8592H15.0219C15.1591 15.8592 15.2702 15.7378 15.2702 15.5879V14.2149C15.3111 14.1837 15.3653 14.1462 15.394 14.1263C15.45 14.0877 15.495 14.0541 15.5128 14.0375C15.6992 13.8625 15.8278 13.6328 15.9391 13.4105C16.2394 12.81 16.3593 12.1464 16.4299 11.6353C16.555 10.7328 16.5127 9.89639 16.3041 9.14924L16.3041 9.1493ZM11.9968 13.3788C12.1236 13.3216 12.1838 13.1629 12.1315 13.0246C12.0791 12.8859 11.9336 12.8199 11.8072 12.8774C11.4955 13.0179 11.192 13.0117 11.0167 12.9902L10.926 11.8169C10.9152 11.6764 10.8076 11.5685 10.6785 11.5685H10.3094C10.3429 11.4009 10.3985 11.1525 10.4781 10.8279C10.5115 10.6922 10.5438 10.554 10.5765 10.4144C10.6918 9.92104 10.8112 9.41159 10.9933 8.95073C10.9935 8.94998 10.9937 8.94922 10.9941 8.94861C10.996 8.9474 10.9988 8.94695 11.0008 8.94589C11.0378 8.92484 11.08 8.90819 11.1253 8.89426C11.133 8.89199 11.1402 8.88972 11.1478 8.88745C11.1934 8.87489 11.2415 8.86505 11.2908 8.85793C11.2994 8.85672 11.3076 8.85566 11.3162 8.8546C11.3661 8.84809 11.4164 8.84309 11.4656 8.84037C11.4725 8.83991 11.4787 8.83976 11.4857 8.83946C11.5361 8.83689 11.5856 8.83537 11.6306 8.83507C11.6693 8.83446 11.7041 8.83916 11.7411 8.84052C12.0764 8.85248 12.3586 8.93998 12.6473 9.12862C12.6729 9.14543 12.6988 9.16193 12.7246 9.18085C13.516 9.75751 13.7083 10.2149 13.7088 10.2159C13.7384 10.2945 13.7999 10.3534 13.8751 10.375C13.9501 10.397 14.0304 10.3788 14.0916 10.3264C14.1167 10.3051 14.1469 10.2856 14.1792 10.2673C14.1893 10.2617 14.1999 10.2562 14.2105 10.2509C14.2348 10.2388 14.2603 10.2279 14.2872 10.2181C14.2987 10.2138 14.3095 10.2091 14.3213 10.2052C14.3569 10.1937 14.3939 10.1844 14.4321 10.1775C14.4458 10.1751 14.4601 10.174 14.474 10.1723C14.5 10.169 14.5262 10.1666 14.5527 10.1655C14.5738 10.1649 14.5947 10.1646 14.6158 10.1657C14.6239 10.166 14.6321 10.1664 14.6401 10.167C14.665 10.169 14.6896 10.1729 14.714 10.1775C14.7223 10.179 14.7306 10.1804 14.739 10.1822C14.7624 10.1876 14.785 10.1953 14.8074 10.2035C14.8143 10.2061 14.8218 10.2073 14.8286 10.2102C14.8304 10.2109 14.8317 10.2123 14.8335 10.2131C14.8762 10.2312 14.9148 10.2547 14.9504 10.2828C14.9583 10.2892 14.9654 10.2969 14.973 10.3037C14.9989 10.3269 15.0225 10.3534 15.0441 10.3823C15.0533 10.3947 15.0626 10.4073 15.0709 10.4206C15.0897 10.4506 15.1059 10.484 15.1209 10.5193C15.1269 10.5336 15.1341 10.5466 15.1395 10.5619C15.1583 10.6146 15.1738 10.6715 15.1845 10.7345C15.3755 11.8613 14.6507 12.2619 14.5808 12.297C14.5334 12.3083 14.4896 12.3348 14.4553 12.3737C14.4408 12.3901 14.4325 12.4107 14.4224 12.43C14.422 12.4309 14.4214 12.4317 14.421 12.4326C14.4116 12.4512 14.4037 12.4694 14.3986 12.4898C14.3836 12.538 14.3811 12.5889 14.3914 12.6387C14.3943 12.6891 14.3971 12.7392 14.4032 12.7908C14.4062 12.8155 14.411 12.8405 14.4147 12.8653C14.4219 12.9156 14.4288 12.966 14.4384 13.0165C14.4443 13.0479 14.4518 13.0789 14.4586 13.1103C14.468 13.1545 14.4769 13.1988 14.4874 13.2424C14.4954 13.2754 14.5045 13.3071 14.5129 13.3395C14.5237 13.3803 14.5341 13.4217 14.5455 13.4615C14.5552 13.4954 14.5654 13.5273 14.5753 13.5602C14.5864 13.5964 14.5972 13.6333 14.6081 13.668C14.6189 13.7019 14.6296 13.7331 14.6403 13.7652C14.6505 13.7958 14.6608 13.8271 14.6706 13.8559C14.6824 13.8899 14.6936 13.9207 14.7047 13.9518C14.7129 13.9746 14.7211 13.998 14.7287 14.0189C14.7428 14.0577 14.756 14.0929 14.7679 14.125C14.7697 14.1299 14.7721 14.1365 14.7739 14.1411V15.3165L12.4704 15.3167L12.4703 15.2402C12.4692 15.0013 12.4682 14.7797 12.4728 14.5123C12.474 14.4383 12.4474 14.3668 12.3993 14.3146C12.3512 14.2625 12.2864 14.2337 12.2178 14.236C12.0947 14.2393 11.4848 14.1746 11.3802 14.1353C11.2819 14.0954 11.1396 13.8375 11.0767 13.5403C11.3146 13.5556 11.6493 13.5357 11.9968 13.3788Z" fill="#1C68FF"/>
<path d="M12.1473 10.6729C12.1473 10.9001 11.9786 11.0845 11.7706 11.0845C11.5625 11.0845 11.3938 10.9001 11.3938 10.6729C11.3938 10.4455 11.5625 10.2612 11.7706 10.2612C11.9786 10.2612 12.1473 10.4455 12.1473 10.6729Z" fill="#1C68FF"/>
<path d="M14.2618 11.803C14.2851 11.8102 14.3085 11.8139 14.3314 11.8139C14.4389 11.8139 14.5381 11.737 14.5697 11.6184C14.6314 11.3872 14.6824 11.0602 14.6846 11.0465C14.7075 10.8987 14.6166 10.7588 14.4813 10.7337C14.3463 10.7101 14.218 10.808 14.195 10.9558C14.1946 10.9588 14.1466 11.2657 14.093 11.4664C14.0546 11.6102 14.1301 11.761 14.2618 11.803Z" fill="#1C68FF"/>
<path d="M2.68796 11.6971C2.66468 11.7044 2.64126 11.708 2.61825 11.708C2.51071 11.708 2.41148 11.6311 2.37988 11.5126C2.31821 11.2814 2.26721 10.9544 2.265 10.9406C2.24213 10.7929 2.33304 10.6528 2.4683 10.6278C2.60328 10.6042 2.73175 10.7022 2.75462 10.8499C2.75503 10.853 2.80299 11.1598 2.85662 11.3606C2.89514 11.5046 2.81961 11.6552 2.68796 11.6971Z" fill="#1C68FF"/>
<path d="M9.01344 5.63987H10.4269C11.4402 5.63987 12.2647 4.73924 12.2647 3.63224V2.00763C12.2647 0.900666 11.4402 0 10.4269 0H5.75869C4.74537 0 3.9209 0.900627 3.9209 2.00763V3.63224C3.9209 4.7392 4.74533 5.63987 5.75869 5.63987H6.82537C6.78601 6.04426 6.71423 6.75684 6.66156 7.11913C6.64992 7.19937 6.67168 7.28097 6.72102 7.34168C6.76827 7.39982 6.8359 7.43297 6.90672 7.43297C6.90991 7.43297 6.9131 7.43282 6.91615 7.43282C6.93181 7.43207 8.41828 7.35031 9.01335 5.63986L9.01344 5.63987ZM7.2002 6.83179C7.26976 6.24164 7.34432 5.43775 7.34821 5.39597C7.35527 5.31952 7.33241 5.24352 7.28529 5.1866C7.23831 5.12967 7.17137 5.09728 7.10111 5.09728H5.75877C5.01926 5.09728 4.41766 4.44008 4.41766 3.63224V2.00763C4.41766 1.19979 5.01926 0.542593 5.75877 0.542593H10.427C11.1665 0.542593 11.7681 1.19979 11.7681 2.00763V3.63224C11.7681 4.44008 11.1665 5.09728 10.427 5.09728H8.83697C8.7286 5.09728 8.63284 5.17403 8.60013 5.28682C8.2915 6.35519 7.6015 6.71264 7.20028 6.83178L7.2002 6.83179Z" fill="#1C68FF"/>
<path d="M10.6577 3.66485C10.6577 3.51497 10.5465 3.39355 10.4093 3.39355H5.81744C5.68024 3.39355 5.56909 3.51497 5.56909 3.66485C5.56909 3.81473 5.68024 3.93615 5.81744 3.93615H10.409C10.5463 3.93615 10.6575 3.81458 10.6575 3.66485H10.6577Z" fill="#1C68FF"/>
<path d="M5.81744 2.41302H9.06424C9.20144 2.41302 9.31258 2.2916 9.31258 2.14172C9.31258 1.99184 9.20144 1.87042 9.06424 1.87042H5.81744C5.68024 1.87042 5.56909 1.99184 5.56909 2.14172C5.56909 2.29145 5.68024 2.41302 5.81744 2.41302Z" fill="#1C68FF"/>
</svg>
