<svg width="17" height="18" viewBox="0 0 17 18" fill="none" xmlns="http://www.w3.org/2000/svg">
<path d="M16.5 11.2104L7.95249 17L0.882922 11.8938C0.882922 11.8938 0.5 11.4168 0.5 10.1315C0.5 9.70141 0.60784 9.71158 0.735482 9.59363C1.1184 9.23943 1.88926 9.75011 2.14174 9.93495C2.47878 10.181 7.868 13.8113 7.868 13.8113L16.5 8.31561" stroke="#0055FF" stroke-opacity="0.87" stroke-miterlimit="10" stroke-linecap="round" stroke-linejoin="round"/>
<path d="M16.5 8.16727L7.95249 13.9569L0.882922 8.85024C0.882922 8.85024 0.5 8.37322 0.5 7.08831C0.5 6.65827 0.60784 6.66844 0.735482 6.5505M0.735482 6.5505C1.1184 6.19629 1.88926 6.70697 2.14174 6.89181C2.47878 7.13663 7.868 10.7678 7.868 10.7678L16.5 5.27207L9.85826 1L0.735482 6.5505Z" stroke="#0055FF" stroke-opacity="0.87" stroke-miterlimit="10" stroke-linecap="round" stroke-linejoin="round"/>
</svg>
