<svg width="17" height="16" viewBox="0 0 17 16" fill="none" xmlns="http://www.w3.org/2000/svg">
<path d="M16.5 13.5338V13.5173V0.275864C16.5 0.202711 16.4709 0.132512 16.4192 0.0807887C16.3675 0.029065 16.2973 0 16.2241 0H5.19001C5.03767 0 4.91416 0.123524 4.91416 0.275864V7.35721C4.58881 7.85402 4.41541 8.43507 4.41541 9.02888C4.41541 9.62286 4.58881 10.2038 4.91416 10.7007V10.8882L4.85073 10.822C4.74347 10.7168 4.5718 10.7168 4.46454 10.822L0.776301 14.3281C0.596504 14.5145 0.497367 14.7642 0.500447 15.0232C0.492442 15.2848 0.592194 15.5381 0.776301 15.724C0.959669 15.905 1.2083 16.0045 1.46593 15.9998C1.72332 16.0032 1.97146 15.9039 2.15557 15.724L4.9141 13.1033V15.724C4.9141 15.7971 4.94317 15.8673 4.99489 15.9191C5.04661 15.9708 5.11681 15.9998 5.18996 15.9998H14.0173C14.0533 15.9993 14.0889 15.992 14.1221 15.9778C14.151 15.9639 14.1778 15.9463 14.2021 15.9253L16.4089 13.7184C16.4312 13.6942 16.449 13.6662 16.4613 13.6357C16.4623 13.6284 16.4623 13.6209 16.4613 13.6136C16.4775 13.5887 16.4905 13.5618 16.5 13.5336L16.5 13.5338ZM14.2932 15.0566V13.7932H15.5594L14.2932 15.0566ZM5.74172 7.23313C5.82139 7.15468 5.90723 7.08276 5.99823 7.01799L6.06166 6.97106C6.15045 6.90986 6.24256 6.8537 6.33751 6.80271L6.36509 6.78892C6.45462 6.74557 6.54674 6.70776 6.64095 6.67587L6.71545 6.64828C6.81557 6.6154 6.91791 6.58966 7.02172 6.57106C7.03724 6.56946 7.053 6.56946 7.06852 6.57106C7.15977 6.55542 7.25189 6.54532 7.34437 6.54064H7.42171C7.5291 6.53239 7.63697 6.53239 7.74435 6.54064H7.79681C7.88967 6.55185 7.98178 6.56848 8.07267 6.5904L8.15813 6.61528V6.61515C8.2665 6.64409 8.37253 6.68091 8.47534 6.7255C8.75046 6.8452 9.0018 7.01343 9.21744 7.22205L9.24502 7.24964C9.5955 7.59682 9.83466 8.04053 9.93195 8.52416C9.93195 8.60421 9.95953 8.68143 9.96507 8.75865H9.96495C10.0248 9.3111 9.89759 9.86778 9.60363 10.3393C9.50351 10.5069 9.38196 10.6609 9.24231 10.7973C8.77386 11.2673 8.13754 11.5314 7.47401 11.5314C6.81048 11.5314 6.17419 11.2673 5.70584 10.7973C5.60338 10.6951 5.51101 10.5833 5.42998 10.4635C5.13652 10.0426 4.97913 9.54201 4.97913 9.02896C4.97913 8.51592 5.13651 8.0153 5.42998 7.59447C5.51151 7.47341 5.60387 7.35974 5.70584 7.25517L5.74172 7.23313ZM1.78046 15.3215C1.70177 15.4031 1.59315 15.4491 1.47973 15.4483C1.30855 15.447 1.15463 15.3438 1.08849 15.1857C1.02248 15.0277 1.05696 14.8456 1.1763 14.7228L4.65773 11.4124L5.2646 12.0138L5.00808 12.2594L1.78046 15.3215ZM5.46586 12.5682L5.84096 12.2096C5.89465 12.1585 5.92544 12.0879 5.92655 12.0138C5.92766 11.9395 5.89884 11.8679 5.8465 11.8152L5.46585 11.4372V11.3351L5.50169 11.3654L5.59824 11.4399C5.64232 11.4767 5.68654 11.5098 5.73062 11.5392L5.83271 11.6082L5.97335 11.6909L6.08098 11.7488L6.22999 11.8205L6.34304 11.8674L6.5003 11.9226L6.61064 11.9612L6.7817 12.0026L6.88933 12.0275L7.08243 12.0551H7.17627H7.46592L7.46579 12.0552C8.27624 12.0577 9.05405 11.7359 9.62571 11.1613C9.75551 11.0374 9.87447 10.9027 9.98161 10.7586H14.3344C14.4868 10.7586 14.6103 10.6351 14.6103 10.4828C14.6103 10.3304 14.4868 10.2069 14.3344 10.2069H10.2849C10.335 10.0881 10.3784 9.96651 10.4146 9.84274C10.4311 9.77648 10.4449 9.71035 10.4587 9.64409C10.4724 9.57783 10.4587 9.59163 10.478 9.56687C10.525 9.30012 10.5361 9.02832 10.5111 8.75861H14.3343C14.4866 8.75861 14.6101 8.63508 14.6101 8.48274C14.6101 8.3304 14.4866 8.20688 14.3343 8.20688H10.4143C10.272 7.70121 10.0023 7.24051 9.63084 6.86892L9.58392 6.82755L9.50671 6.75858H14.334C14.4863 6.75858 14.6098 6.63506 14.6098 6.48272C14.6098 6.33038 14.4863 6.20685 14.334 6.20685H8.63217L8.48045 6.14897C8.44733 6.13518 8.41149 6.12692 8.37836 6.11584L8.26802 6.08271L8.1466 6.05242L8.05559 6.03308L7.92591 6.01104L7.83762 5.99724H7.17853L7.04885 6.01104H6.9661L6.83926 6.03308L6.75379 6.05242L6.62966 6.08555L6.54419 6.11042L6.4256 6.1518L6.42536 6.15168C6.39605 6.1603 6.36735 6.17138 6.33989 6.18481L6.22684 6.23173L6.13854 6.2704L6.03374 6.32557L5.94545 6.3752L5.84336 6.43309L5.75506 6.49097L5.66405 6.55722L5.57304 6.62619L5.49029 6.69516L5.45999 6.7172L5.45987 0.551721H15.948V13.2415H14.017C13.8647 13.2415 13.7411 13.365 13.7411 13.5173V15.4484H5.46554L5.46586 12.5682Z" fill="#1C68FF"/>
<path d="M7.09348 2.75876H12.1831C12.3354 2.75876 12.4589 2.63524 12.4589 2.4829C12.4589 2.33056 12.3354 2.20703 12.1831 2.20703H7.09348C6.94115 2.20703 6.81763 2.33056 6.81763 2.4829C6.81763 2.63524 6.94115 2.75876 7.09348 2.75876Z" fill="#1C68FF"/>
<path d="M14.3342 4.20709H7.09299C6.94066 4.20709 6.81714 4.33062 6.81714 4.48296C6.81714 4.6353 6.94066 4.75882 7.09299 4.75882H14.3342C14.4866 4.75882 14.6101 4.6353 14.6101 4.48296C14.6101 4.33062 14.4866 4.20709 14.3342 4.20709Z" fill="#1C68FF"/>
</svg>
