<svg width="37" height="36" viewBox="0 0 37 36" fill="none" xmlns="http://www.w3.org/2000/svg">
<rect x="0.5" width="36" height="36" rx="18" fill="#D7E8FF"/>
<path d="M26.2425 10.2525C26.0634 10.0737 25.8127 9.98441 25.5442 10.0022L21.0681 10.3061C20.8533 10.3239 20.6564 10.4133 20.4951 10.5563L10.7552 20.298C10.4149 20.6377 10.4149 21.2096 10.7552 21.5492L14.9448 25.7319C15.1239 25.9107 15.3387 26 15.5715 26C15.8043 26 16.0191 25.9106 16.1982 25.7319L25.9382 16.0081C26.0814 15.8651 26.1888 15.6506 26.1888 15.436L26.4932 10.9316C26.5289 10.6815 26.4216 10.4311 26.2425 10.2525ZM25.6516 15.4004C25.6516 15.4898 25.6158 15.5612 25.5621 15.6149L15.8221 25.3566C15.6967 25.4818 15.4819 25.4818 15.3387 25.3566L11.1491 21.156C11.0237 21.0308 11.0237 20.8164 11.1491 20.6734L20.889 10.9495C20.9427 10.8959 21.0144 10.8601 21.1038 10.8601L25.5978 10.5384H25.6157C25.7052 10.5384 25.7948 10.5742 25.8485 10.6278C25.92 10.6993 25.9559 10.7887 25.9559 10.8959L25.6516 15.4004Z" fill="#1C68FF"/>
<path d="M23.8797 11.8791C23.4679 11.8791 23.1277 12.2187 23.1277 12.6298C23.1277 13.0409 23.4679 13.3806 23.8797 13.3806C24.2914 13.3806 24.6316 13.0409 24.6316 12.6298C24.6316 12.2186 24.3093 11.8791 23.8797 11.8791ZM23.8797 12.8443C23.7723 12.8443 23.6649 12.7549 23.6649 12.6298C23.6649 12.5226 23.7544 12.4153 23.8797 12.4153C23.9871 12.4153 24.0945 12.5047 24.0945 12.6298C24.0945 12.7549 24.0049 12.8443 23.8797 12.8443Z" fill="#1C68FF"/>
</svg>
