<svg width="24" height="14" viewBox="0 0 24 14" fill="none" xmlns="http://www.w3.org/2000/svg">
<path d="M4.94616 8.88183C6.55387 8.88183 7.86167 7.57366 7.86167 5.96576C7.86167 4.35767 6.55382 3.04968 4.94616 3.04968C3.3385 3.04968 2.03027 4.35786 2.03027 5.96576C2.03027 7.57366 3.33845 8.88183 4.94616 8.88183ZM4.94616 4.00648C6.02644 4.00648 6.90525 4.88529 6.90525 5.96557C6.90525 7.04585 6.02625 7.92466 4.94616 7.92466C3.86574 7.92466 2.98688 7.04585 2.98688 5.96557C2.98688 4.88515 3.8655 4.00648 4.94616 4.00648Z" fill="black"/>
<path d="M19.0532 8.88184C20.6609 8.88184 21.9687 7.57366 21.9687 5.96576C21.9689 4.35768 20.6609 3.0495 19.0532 3.0495C17.4455 3.0495 16.1377 4.35768 16.1377 5.96557C16.1377 7.57366 17.4455 8.88184 19.0532 8.88184ZM19.0532 4.00648C20.1335 4.00648 21.0123 4.88529 21.0123 5.96557C21.0123 7.04586 20.1333 7.92466 19.0532 7.92466C17.9731 7.92466 17.0941 7.04586 17.0941 5.96557C17.0941 4.88515 17.9729 4.00648 19.0532 4.00648Z" fill="black"/>
<path d="M20.7039 9.63912H17.4029C17.1601 9.63912 16.9139 9.66764 16.67 9.72411V9.32859C16.67 7.60738 15.2693 6.20703 13.5479 6.20703L10.4521 6.20685C8.73071 6.20685 7.32998 7.60719 7.32998 9.3284V9.72393C7.08568 9.66745 6.83972 9.63894 6.59652 9.63894L3.29614 9.63912C1.47852 9.63912 0 11.1178 0 12.9358V13.9084H0.956609V12.9358C0.956609 11.6453 2.00595 10.5957 3.29614 10.5957H6.59652C7.8867 10.5957 8.93642 11.6454 8.93642 12.9358V13.9084H9.89303V12.9358C9.89303 11.7682 9.283 10.7049 8.28664 10.1093V9.32838C8.28664 8.13479 9.25818 7.16344 10.4521 7.16344H13.5479C14.7419 7.16344 15.7134 8.13479 15.7134 9.32838V10.1093C14.717 10.7049 14.107 11.7682 14.107 12.9358V13.9084H15.0636V12.9358C15.0636 11.6453 16.1129 10.5957 17.4029 10.5957H20.7039C21.9941 10.5957 23.0434 11.6454 23.0434 12.9358V13.9084H24V12.9358C24 11.1178 22.5214 9.63912 20.7039 9.63912Z" fill="black"/>
<path d="M12 5.55498C13.5247 5.55498 14.7647 4.31466 14.7647 2.78994C14.7647 1.2654 13.5246 0.0250854 12 0.0250854C10.4753 0.0250854 9.23535 1.2654 9.23535 2.79012C9.23517 4.31466 10.4753 5.55498 12 5.55498ZM12 0.982072C12.9969 0.982072 13.8083 1.79301 13.8083 2.78994C13.8083 3.78686 12.9969 4.5978 12 4.5978C11.0029 4.5978 10.1918 3.78686 10.1918 2.78994C10.1918 1.7932 11.0027 0.982072 12 0.982072Z" fill="black"/>
</svg>
