<svg width="24" height="24" viewBox="0 0 24 24" fill="none" xmlns="http://www.w3.org/2000/svg">
<path d="M19.7656 7.0345L14.5656 1.8345C14.4152 1.6841 14.212 1.6001 14 1.6001H5.6C4.716 1.6001 4 2.3161 4 3.2001V20.8001C4 21.6841 4.716 22.4001 5.6 22.4001H18.4C19.284 22.4001 20 21.6841 20 20.8001V7.6001C20 7.3881 19.916 7.1849 19.7656 7.0345ZM14.4 16.8001H8C7.5584 16.8001 7.2 16.4417 7.2 16.0001C7.2 15.5585 7.5584 15.2001 8 15.2001H14.4C14.8416 15.2001 15.2 15.5585 15.2 16.0001C15.2 16.4417 14.8416 16.8001 14.4 16.8001ZM16 13.6001H8C7.5584 13.6001 7.2 13.2417 7.2 12.8001C7.2 12.3585 7.5584 12.0001 8 12.0001H16C16.4416 12.0001 16.8 12.3585 16.8 12.8001C16.8 13.2417 16.4416 13.6001 16 13.6001ZM14.4 8.0001C13.9584 8.0001 13.6 7.6417 13.6 7.2001V3.1233L18.4768 8.0001H14.4Z" fill="#D4D4D4"/>
</svg>
